<mxfile host="app.diagrams.net" modified="2023-08-27T05:09:23.940Z" agent="Mozilla/5.0 (Macintosh; Intel Mac OS X 10_15_7) AppleWebKit/537.36 (KHTML, like Gecko) Chrome/116.0.0.0 Safari/537.36" etag="Ij6o77H2aEquCRXczRnR" version="21.6.9" type="github">
  <diagram name="第 1 页" id="eNjlHxGM8aWOzDTOoc28">
    <mxGraphModel dx="1562" dy="885" grid="1" gridSize="10" guides="1" tooltips="1" connect="1" arrows="1" fold="1" page="1" pageScale="1" pageWidth="1050" pageHeight="550" math="0" shadow="0">
      <root>
        <mxCell id="0" />
        <mxCell id="1" parent="0" />
        <mxCell id="5lzL2eHM6LopC9p1s4zt-1" style="edgeStyle=none;rounded=0;orthogonalLoop=1;jettySize=auto;html=1;exitX=0.5;exitY=0;exitDx=0;exitDy=0;entryX=0.5;entryY=1;entryDx=0;entryDy=0;" edge="1" parent="1" source="5lzL2eHM6LopC9p1s4zt-2" target="5lzL2eHM6LopC9p1s4zt-26">
          <mxGeometry relative="1" as="geometry" />
        </mxCell>
        <mxCell id="5lzL2eHM6LopC9p1s4zt-2" value="&lt;font face=&quot;Times New Roman&quot;&gt;Tok0&lt;/font&gt;" style="ellipse;whiteSpace=wrap;html=1;aspect=fixed;fillColor=#e1d5e7;strokeColor=#9673a6;" vertex="1" parent="1">
          <mxGeometry x="25" y="170" width="40" height="40" as="geometry" />
        </mxCell>
        <mxCell id="5lzL2eHM6LopC9p1s4zt-3" style="edgeStyle=none;rounded=0;orthogonalLoop=1;jettySize=auto;html=1;exitX=0.5;exitY=0;exitDx=0;exitDy=0;entryX=0.5;entryY=1;entryDx=0;entryDy=0;" edge="1" parent="1" source="5lzL2eHM6LopC9p1s4zt-4" target="5lzL2eHM6LopC9p1s4zt-32">
          <mxGeometry relative="1" as="geometry" />
        </mxCell>
        <mxCell id="5lzL2eHM6LopC9p1s4zt-4" value="&lt;font face=&quot;Times New Roman&quot;&gt;Tok1&lt;/font&gt;" style="ellipse;whiteSpace=wrap;html=1;aspect=fixed;fillColor=#e1d5e7;strokeColor=#9673a6;" vertex="1" parent="1">
          <mxGeometry x="105" y="170" width="40" height="40" as="geometry" />
        </mxCell>
        <mxCell id="5lzL2eHM6LopC9p1s4zt-5" style="edgeStyle=none;rounded=0;orthogonalLoop=1;jettySize=auto;html=1;exitX=0.5;exitY=0;exitDx=0;exitDy=0;entryX=0.5;entryY=1;entryDx=0;entryDy=0;" edge="1" parent="1" source="5lzL2eHM6LopC9p1s4zt-6" target="5lzL2eHM6LopC9p1s4zt-38">
          <mxGeometry relative="1" as="geometry" />
        </mxCell>
        <mxCell id="5lzL2eHM6LopC9p1s4zt-6" value="&lt;font face=&quot;Times New Roman&quot;&gt;Tok2&lt;/font&gt;" style="ellipse;whiteSpace=wrap;html=1;aspect=fixed;fillColor=#e1d5e7;strokeColor=#9673a6;" vertex="1" parent="1">
          <mxGeometry x="185" y="170" width="40" height="40" as="geometry" />
        </mxCell>
        <mxCell id="5lzL2eHM6LopC9p1s4zt-7" style="edgeStyle=none;rounded=0;orthogonalLoop=1;jettySize=auto;html=1;exitX=0.5;exitY=0;exitDx=0;exitDy=0;entryX=0.5;entryY=1;entryDx=0;entryDy=0;" edge="1" parent="1" source="5lzL2eHM6LopC9p1s4zt-8" target="5lzL2eHM6LopC9p1s4zt-43">
          <mxGeometry relative="1" as="geometry" />
        </mxCell>
        <mxCell id="5lzL2eHM6LopC9p1s4zt-8" value="&lt;font face=&quot;Times New Roman&quot;&gt;SOS&lt;/font&gt;" style="ellipse;whiteSpace=wrap;html=1;aspect=fixed;fillColor=#e1d5e7;strokeColor=#9673a6;" vertex="1" parent="1">
          <mxGeometry x="265" y="170" width="40" height="40" as="geometry" />
        </mxCell>
        <mxCell id="5lzL2eHM6LopC9p1s4zt-9" style="edgeStyle=none;rounded=0;orthogonalLoop=1;jettySize=auto;html=1;exitX=0.5;exitY=0;exitDx=0;exitDy=0;entryX=0.5;entryY=1;entryDx=0;entryDy=0;" edge="1" parent="1" source="5lzL2eHM6LopC9p1s4zt-10" target="5lzL2eHM6LopC9p1s4zt-47">
          <mxGeometry relative="1" as="geometry" />
        </mxCell>
        <mxCell id="5lzL2eHM6LopC9p1s4zt-10" value="&lt;font face=&quot;Times New Roman&quot;&gt;Tokn&lt;/font&gt;" style="ellipse;whiteSpace=wrap;html=1;aspect=fixed;fillColor=#e1d5e7;strokeColor=#9673a6;" vertex="1" parent="1">
          <mxGeometry x="365" y="170" width="40" height="40" as="geometry" />
        </mxCell>
        <mxCell id="5lzL2eHM6LopC9p1s4zt-11" value="&lt;font face=&quot;Times New Roman&quot;&gt;Tok0&lt;/font&gt;" style="ellipse;whiteSpace=wrap;html=1;aspect=fixed;" vertex="1" parent="1">
          <mxGeometry x="25" y="10" width="40" height="40" as="geometry" />
        </mxCell>
        <mxCell id="5lzL2eHM6LopC9p1s4zt-12" value="&lt;font face=&quot;Times New Roman&quot;&gt;Tok1&lt;/font&gt;" style="ellipse;whiteSpace=wrap;html=1;aspect=fixed;" vertex="1" parent="1">
          <mxGeometry x="105" y="10" width="40" height="40" as="geometry" />
        </mxCell>
        <mxCell id="5lzL2eHM6LopC9p1s4zt-13" value="&lt;font face=&quot;Times New Roman&quot;&gt;Tok2&lt;/font&gt;" style="ellipse;whiteSpace=wrap;html=1;aspect=fixed;" vertex="1" parent="1">
          <mxGeometry x="185" y="10" width="40" height="40" as="geometry" />
        </mxCell>
        <mxCell id="5lzL2eHM6LopC9p1s4zt-14" value="&lt;font face=&quot;Times New Roman&quot;&gt;Tok3&lt;/font&gt;" style="ellipse;whiteSpace=wrap;html=1;aspect=fixed;fillColor=#f8cecc;strokeColor=#b85450;" vertex="1" parent="1">
          <mxGeometry x="265" y="10" width="40" height="40" as="geometry" />
        </mxCell>
        <mxCell id="5lzL2eHM6LopC9p1s4zt-15" value="&lt;font face=&quot;Times New Roman&quot;&gt;EOS&lt;/font&gt;" style="ellipse;whiteSpace=wrap;html=1;aspect=fixed;fillColor=#f8cecc;strokeColor=#b85450;" vertex="1" parent="1">
          <mxGeometry x="365" y="10" width="40" height="40" as="geometry" />
        </mxCell>
        <mxCell id="5lzL2eHM6LopC9p1s4zt-16" style="edgeStyle=none;rounded=0;orthogonalLoop=1;jettySize=auto;html=1;exitX=0.5;exitY=0;exitDx=0;exitDy=0;entryX=0.5;entryY=1;entryDx=0;entryDy=0;" edge="1" parent="1" source="5lzL2eHM6LopC9p1s4zt-17" target="5lzL2eHM6LopC9p1s4zt-11">
          <mxGeometry relative="1" as="geometry" />
        </mxCell>
        <mxCell id="5lzL2eHM6LopC9p1s4zt-17" value="" style="rounded=1;whiteSpace=wrap;html=1;" vertex="1" parent="1">
          <mxGeometry x="25" y="80" width="40" height="20" as="geometry" />
        </mxCell>
        <mxCell id="5lzL2eHM6LopC9p1s4zt-18" style="edgeStyle=none;rounded=0;orthogonalLoop=1;jettySize=auto;html=1;exitX=0.5;exitY=0;exitDx=0;exitDy=0;entryX=0.5;entryY=1;entryDx=0;entryDy=0;" edge="1" parent="1" source="5lzL2eHM6LopC9p1s4zt-19" target="5lzL2eHM6LopC9p1s4zt-12">
          <mxGeometry relative="1" as="geometry" />
        </mxCell>
        <mxCell id="5lzL2eHM6LopC9p1s4zt-19" value="" style="rounded=1;whiteSpace=wrap;html=1;" vertex="1" parent="1">
          <mxGeometry x="105" y="80" width="40" height="20" as="geometry" />
        </mxCell>
        <mxCell id="5lzL2eHM6LopC9p1s4zt-20" style="edgeStyle=none;rounded=0;orthogonalLoop=1;jettySize=auto;html=1;exitX=0.5;exitY=0;exitDx=0;exitDy=0;entryX=0.5;entryY=1;entryDx=0;entryDy=0;" edge="1" parent="1" source="5lzL2eHM6LopC9p1s4zt-21" target="5lzL2eHM6LopC9p1s4zt-13">
          <mxGeometry relative="1" as="geometry" />
        </mxCell>
        <mxCell id="5lzL2eHM6LopC9p1s4zt-21" value="" style="rounded=1;whiteSpace=wrap;html=1;" vertex="1" parent="1">
          <mxGeometry x="185" y="80" width="40" height="20" as="geometry" />
        </mxCell>
        <mxCell id="5lzL2eHM6LopC9p1s4zt-22" style="rounded=0;orthogonalLoop=1;jettySize=auto;html=1;exitX=0.5;exitY=0;exitDx=0;exitDy=0;entryX=0.5;entryY=1;entryDx=0;entryDy=0;endArrow=none;endFill=0;strokeColor=#CCCCCC;" edge="1" parent="1" source="5lzL2eHM6LopC9p1s4zt-26" target="5lzL2eHM6LopC9p1s4zt-17">
          <mxGeometry relative="1" as="geometry" />
        </mxCell>
        <mxCell id="5lzL2eHM6LopC9p1s4zt-23" style="edgeStyle=none;rounded=0;orthogonalLoop=1;jettySize=auto;html=1;exitX=0.5;exitY=0;exitDx=0;exitDy=0;entryX=0.5;entryY=1;entryDx=0;entryDy=0;endArrow=none;endFill=0;strokeColor=#CCCCCC;" edge="1" parent="1" source="5lzL2eHM6LopC9p1s4zt-26" target="5lzL2eHM6LopC9p1s4zt-19">
          <mxGeometry relative="1" as="geometry" />
        </mxCell>
        <mxCell id="5lzL2eHM6LopC9p1s4zt-24" style="edgeStyle=none;rounded=0;orthogonalLoop=1;jettySize=auto;html=1;exitX=0.5;exitY=0;exitDx=0;exitDy=0;entryX=0.5;entryY=1;entryDx=0;entryDy=0;endArrow=none;endFill=0;strokeColor=#CCCCCC;" edge="1" parent="1" source="5lzL2eHM6LopC9p1s4zt-26" target="5lzL2eHM6LopC9p1s4zt-21">
          <mxGeometry relative="1" as="geometry" />
        </mxCell>
        <mxCell id="5lzL2eHM6LopC9p1s4zt-25" style="edgeStyle=none;rounded=0;orthogonalLoop=1;jettySize=auto;html=1;exitX=0.5;exitY=0;exitDx=0;exitDy=0;entryX=0.5;entryY=1;entryDx=0;entryDy=0;endArrow=none;endFill=0;" edge="1" parent="1" source="5lzL2eHM6LopC9p1s4zt-26" target="5lzL2eHM6LopC9p1s4zt-40">
          <mxGeometry relative="1" as="geometry" />
        </mxCell>
        <mxCell id="5lzL2eHM6LopC9p1s4zt-26" value="" style="rounded=1;whiteSpace=wrap;html=1;" vertex="1" parent="1">
          <mxGeometry x="25" y="120" width="40" height="20" as="geometry" />
        </mxCell>
        <mxCell id="5lzL2eHM6LopC9p1s4zt-27" style="rounded=0;orthogonalLoop=1;jettySize=auto;html=1;exitX=0.5;exitY=0;exitDx=0;exitDy=0;entryX=0.5;entryY=1;entryDx=0;entryDy=0;endArrow=none;endFill=0;strokeColor=#CCCCCC;" edge="1" parent="1" source="5lzL2eHM6LopC9p1s4zt-32" target="5lzL2eHM6LopC9p1s4zt-19">
          <mxGeometry relative="1" as="geometry" />
        </mxCell>
        <mxCell id="5lzL2eHM6LopC9p1s4zt-28" style="rounded=0;orthogonalLoop=1;jettySize=auto;html=1;exitX=0.5;exitY=0;exitDx=0;exitDy=0;endArrow=none;endFill=0;strokeColor=#CCCCCC;" edge="1" parent="1" source="5lzL2eHM6LopC9p1s4zt-32">
          <mxGeometry relative="1" as="geometry">
            <mxPoint x="205" y="100" as="targetPoint" />
          </mxGeometry>
        </mxCell>
        <mxCell id="5lzL2eHM6LopC9p1s4zt-29" style="edgeStyle=none;rounded=0;orthogonalLoop=1;jettySize=auto;html=1;exitX=0.5;exitY=0;exitDx=0;exitDy=0;entryX=0.5;entryY=1;entryDx=0;entryDy=0;endArrow=none;endFill=0;strokeColor=#CCCCCC;" edge="1" parent="1" source="5lzL2eHM6LopC9p1s4zt-32" target="5lzL2eHM6LopC9p1s4zt-17">
          <mxGeometry relative="1" as="geometry" />
        </mxCell>
        <mxCell id="5lzL2eHM6LopC9p1s4zt-30" style="edgeStyle=none;rounded=0;orthogonalLoop=1;jettySize=auto;html=1;exitX=0.5;exitY=0;exitDx=0;exitDy=0;endArrow=none;endFill=0;" edge="1" parent="1" source="5lzL2eHM6LopC9p1s4zt-32">
          <mxGeometry relative="1" as="geometry">
            <mxPoint x="285" y="100.00000000000006" as="targetPoint" />
          </mxGeometry>
        </mxCell>
        <mxCell id="5lzL2eHM6LopC9p1s4zt-31" style="edgeStyle=none;rounded=0;orthogonalLoop=1;jettySize=auto;html=1;exitX=0.5;exitY=0;exitDx=0;exitDy=0;endArrow=none;endFill=0;" edge="1" parent="1" source="5lzL2eHM6LopC9p1s4zt-32">
          <mxGeometry relative="1" as="geometry">
            <mxPoint x="385" y="100.00000000000006" as="targetPoint" />
          </mxGeometry>
        </mxCell>
        <mxCell id="5lzL2eHM6LopC9p1s4zt-32" value="" style="rounded=1;whiteSpace=wrap;html=1;" vertex="1" parent="1">
          <mxGeometry x="105" y="120" width="40" height="20" as="geometry" />
        </mxCell>
        <mxCell id="5lzL2eHM6LopC9p1s4zt-33" style="edgeStyle=none;rounded=0;orthogonalLoop=1;jettySize=auto;html=1;exitX=0.5;exitY=0;exitDx=0;exitDy=0;endArrow=none;endFill=0;strokeColor=#CCCCCC;" edge="1" parent="1" source="5lzL2eHM6LopC9p1s4zt-38">
          <mxGeometry relative="1" as="geometry">
            <mxPoint x="205" y="100" as="targetPoint" />
          </mxGeometry>
        </mxCell>
        <mxCell id="5lzL2eHM6LopC9p1s4zt-34" style="edgeStyle=none;rounded=0;orthogonalLoop=1;jettySize=auto;html=1;exitX=0.5;exitY=0;exitDx=0;exitDy=0;endArrow=none;endFill=0;" edge="1" parent="1" source="5lzL2eHM6LopC9p1s4zt-38">
          <mxGeometry relative="1" as="geometry">
            <mxPoint x="285" y="100" as="targetPoint" />
          </mxGeometry>
        </mxCell>
        <mxCell id="5lzL2eHM6LopC9p1s4zt-35" style="edgeStyle=none;rounded=0;orthogonalLoop=1;jettySize=auto;html=1;exitX=0.5;exitY=0;exitDx=0;exitDy=0;endArrow=none;endFill=0;" edge="1" parent="1" source="5lzL2eHM6LopC9p1s4zt-38">
          <mxGeometry relative="1" as="geometry">
            <mxPoint x="385" y="100" as="targetPoint" />
          </mxGeometry>
        </mxCell>
        <mxCell id="5lzL2eHM6LopC9p1s4zt-36" style="edgeStyle=none;rounded=0;orthogonalLoop=1;jettySize=auto;html=1;exitX=0.5;exitY=0;exitDx=0;exitDy=0;endArrow=none;endFill=0;strokeColor=#CCCCCC;" edge="1" parent="1" source="5lzL2eHM6LopC9p1s4zt-38">
          <mxGeometry relative="1" as="geometry">
            <mxPoint x="125" y="100" as="targetPoint" />
          </mxGeometry>
        </mxCell>
        <mxCell id="5lzL2eHM6LopC9p1s4zt-37" style="edgeStyle=none;rounded=0;orthogonalLoop=1;jettySize=auto;html=1;exitX=0.5;exitY=0;exitDx=0;exitDy=0;entryX=0.5;entryY=1;entryDx=0;entryDy=0;endArrow=none;endFill=0;strokeColor=#CCCCCC;" edge="1" parent="1" source="5lzL2eHM6LopC9p1s4zt-38" target="5lzL2eHM6LopC9p1s4zt-17">
          <mxGeometry relative="1" as="geometry" />
        </mxCell>
        <mxCell id="5lzL2eHM6LopC9p1s4zt-38" value="" style="rounded=1;whiteSpace=wrap;html=1;" vertex="1" parent="1">
          <mxGeometry x="185" y="120" width="40" height="20" as="geometry" />
        </mxCell>
        <mxCell id="5lzL2eHM6LopC9p1s4zt-39" style="edgeStyle=none;rounded=0;orthogonalLoop=1;jettySize=auto;html=1;exitX=0.5;exitY=0;exitDx=0;exitDy=0;entryX=0.5;entryY=1;entryDx=0;entryDy=0;" edge="1" parent="1" source="5lzL2eHM6LopC9p1s4zt-40" target="5lzL2eHM6LopC9p1s4zt-14">
          <mxGeometry relative="1" as="geometry" />
        </mxCell>
        <mxCell id="5lzL2eHM6LopC9p1s4zt-40" value="" style="rounded=1;whiteSpace=wrap;html=1;fillColor=#ffe6cc;strokeColor=#d79b00;" vertex="1" parent="1">
          <mxGeometry x="265" y="80" width="40" height="20" as="geometry" />
        </mxCell>
        <mxCell id="5lzL2eHM6LopC9p1s4zt-41" style="edgeStyle=none;rounded=0;orthogonalLoop=1;jettySize=auto;html=1;exitX=0.5;exitY=0;exitDx=0;exitDy=0;endArrow=none;endFill=0;" edge="1" parent="1" source="5lzL2eHM6LopC9p1s4zt-43">
          <mxGeometry relative="1" as="geometry">
            <mxPoint x="285" y="100" as="targetPoint" />
          </mxGeometry>
        </mxCell>
        <mxCell id="5lzL2eHM6LopC9p1s4zt-42" style="edgeStyle=none;rounded=0;orthogonalLoop=1;jettySize=auto;html=1;exitX=0.5;exitY=0;exitDx=0;exitDy=0;endArrow=none;endFill=0;" edge="1" parent="1" source="5lzL2eHM6LopC9p1s4zt-43">
          <mxGeometry relative="1" as="geometry">
            <mxPoint x="385" y="100" as="targetPoint" />
          </mxGeometry>
        </mxCell>
        <mxCell id="5lzL2eHM6LopC9p1s4zt-43" value="" style="rounded=1;whiteSpace=wrap;html=1;fillColor=#ffe6cc;strokeColor=#d79b00;" vertex="1" parent="1">
          <mxGeometry x="265" y="120" width="40" height="20" as="geometry" />
        </mxCell>
        <mxCell id="5lzL2eHM6LopC9p1s4zt-44" style="edgeStyle=none;rounded=0;orthogonalLoop=1;jettySize=auto;html=1;exitX=0.5;exitY=0;exitDx=0;exitDy=0;entryX=0.5;entryY=1;entryDx=0;entryDy=0;" edge="1" parent="1" source="5lzL2eHM6LopC9p1s4zt-45" target="5lzL2eHM6LopC9p1s4zt-15">
          <mxGeometry relative="1" as="geometry" />
        </mxCell>
        <mxCell id="5lzL2eHM6LopC9p1s4zt-45" value="" style="rounded=1;whiteSpace=wrap;html=1;fillColor=#ffe6cc;strokeColor=#d79b00;" vertex="1" parent="1">
          <mxGeometry x="365" y="80" width="40" height="20" as="geometry" />
        </mxCell>
        <mxCell id="5lzL2eHM6LopC9p1s4zt-46" style="edgeStyle=none;rounded=0;orthogonalLoop=1;jettySize=auto;html=1;exitX=0.5;exitY=0;exitDx=0;exitDy=0;endArrow=none;endFill=0;" edge="1" parent="1" source="5lzL2eHM6LopC9p1s4zt-47">
          <mxGeometry relative="1" as="geometry">
            <mxPoint x="385" y="100" as="targetPoint" />
          </mxGeometry>
        </mxCell>
        <mxCell id="5lzL2eHM6LopC9p1s4zt-47" value="" style="rounded=1;whiteSpace=wrap;html=1;fillColor=#ffe6cc;strokeColor=#d79b00;" vertex="1" parent="1">
          <mxGeometry x="365" y="120" width="40" height="20" as="geometry" />
        </mxCell>
        <mxCell id="5lzL2eHM6LopC9p1s4zt-48" value="" style="endArrow=none;dashed=1;html=1;dashPattern=1 3;strokeWidth=3;rounded=0;endFill=0;" edge="1" parent="1">
          <mxGeometry width="50" height="50" relative="1" as="geometry">
            <mxPoint x="315" y="89.68" as="sourcePoint" />
            <mxPoint x="355" y="89.68" as="targetPoint" />
          </mxGeometry>
        </mxCell>
        <mxCell id="5lzL2eHM6LopC9p1s4zt-49" value="" style="endArrow=none;dashed=1;html=1;dashPattern=1 3;strokeWidth=3;rounded=0;" edge="1" parent="1">
          <mxGeometry width="50" height="50" relative="1" as="geometry">
            <mxPoint x="315" y="129.68" as="sourcePoint" />
            <mxPoint x="355" y="129.68" as="targetPoint" />
          </mxGeometry>
        </mxCell>
        <mxCell id="5lzL2eHM6LopC9p1s4zt-50" style="edgeStyle=none;rounded=0;orthogonalLoop=1;jettySize=auto;html=1;exitX=0.5;exitY=0;exitDx=0;exitDy=0;entryX=0.5;entryY=1;entryDx=0;entryDy=0;" edge="1" parent="1" source="5lzL2eHM6LopC9p1s4zt-51" target="5lzL2eHM6LopC9p1s4zt-82">
          <mxGeometry relative="1" as="geometry" />
        </mxCell>
        <mxCell id="5lzL2eHM6LopC9p1s4zt-51" value="&lt;font face=&quot;Times New Roman&quot;&gt;Tok0&lt;/font&gt;" style="ellipse;whiteSpace=wrap;html=1;aspect=fixed;fillColor=#e1d5e7;strokeColor=#9673a6;" vertex="1" parent="1">
          <mxGeometry x="505" y="170" width="40" height="40" as="geometry" />
        </mxCell>
        <mxCell id="5lzL2eHM6LopC9p1s4zt-52" style="edgeStyle=none;rounded=0;orthogonalLoop=1;jettySize=auto;html=1;exitX=0.5;exitY=0;exitDx=0;exitDy=0;entryX=0.5;entryY=1;entryDx=0;entryDy=0;" edge="1" parent="1" source="5lzL2eHM6LopC9p1s4zt-53" target="5lzL2eHM6LopC9p1s4zt-88">
          <mxGeometry relative="1" as="geometry" />
        </mxCell>
        <mxCell id="5lzL2eHM6LopC9p1s4zt-53" value="&lt;font face=&quot;Times New Roman&quot;&gt;Tok1&lt;/font&gt;" style="ellipse;whiteSpace=wrap;html=1;aspect=fixed;fillColor=#e1d5e7;strokeColor=#9673a6;" vertex="1" parent="1">
          <mxGeometry x="585" y="170" width="40" height="40" as="geometry" />
        </mxCell>
        <mxCell id="5lzL2eHM6LopC9p1s4zt-54" style="edgeStyle=none;rounded=0;orthogonalLoop=1;jettySize=auto;html=1;exitX=0.5;exitY=0;exitDx=0;exitDy=0;entryX=0.5;entryY=1;entryDx=0;entryDy=0;" edge="1" parent="1" source="5lzL2eHM6LopC9p1s4zt-55" target="5lzL2eHM6LopC9p1s4zt-112">
          <mxGeometry relative="1" as="geometry" />
        </mxCell>
        <mxCell id="5lzL2eHM6LopC9p1s4zt-55" value="&lt;font face=&quot;Times New Roman&quot;&gt;Tok4&lt;/font&gt;" style="ellipse;whiteSpace=wrap;html=1;aspect=fixed;fillColor=#e1d5e7;strokeColor=#9673a6;" vertex="1" parent="1">
          <mxGeometry x="905" y="170" width="40" height="40" as="geometry" />
        </mxCell>
        <mxCell id="5lzL2eHM6LopC9p1s4zt-56" style="edgeStyle=none;rounded=0;orthogonalLoop=1;jettySize=auto;html=1;exitX=0.5;exitY=0;exitDx=0;exitDy=0;entryX=0.5;entryY=1;entryDx=0;entryDy=0;" edge="1" parent="1" source="5lzL2eHM6LopC9p1s4zt-57" target="5lzL2eHM6LopC9p1s4zt-117">
          <mxGeometry relative="1" as="geometry" />
        </mxCell>
        <mxCell id="5lzL2eHM6LopC9p1s4zt-57" value="&lt;font face=&quot;Times New Roman&quot;&gt;Tok5&lt;/font&gt;" style="ellipse;whiteSpace=wrap;html=1;aspect=fixed;fillColor=#e1d5e7;strokeColor=#9673a6;" vertex="1" parent="1">
          <mxGeometry x="985" y="170" width="40" height="40" as="geometry" />
        </mxCell>
        <mxCell id="5lzL2eHM6LopC9p1s4zt-58" value="&lt;font face=&quot;Times New Roman&quot;&gt;Tok0&lt;/font&gt;" style="ellipse;whiteSpace=wrap;html=1;aspect=fixed;" vertex="1" parent="1">
          <mxGeometry x="505" y="10" width="40" height="40" as="geometry" />
        </mxCell>
        <mxCell id="5lzL2eHM6LopC9p1s4zt-59" value="&lt;font face=&quot;Times New Roman&quot;&gt;Tok1&lt;/font&gt;" style="ellipse;whiteSpace=wrap;html=1;aspect=fixed;" vertex="1" parent="1">
          <mxGeometry x="585" y="10" width="40" height="40" as="geometry" />
        </mxCell>
        <mxCell id="5lzL2eHM6LopC9p1s4zt-60" value="&lt;font face=&quot;Times New Roman&quot;&gt;Tok4&lt;/font&gt;" style="ellipse;whiteSpace=wrap;html=1;aspect=fixed;" vertex="1" parent="1">
          <mxGeometry x="905" y="10" width="40" height="40" as="geometry" />
        </mxCell>
        <mxCell id="5lzL2eHM6LopC9p1s4zt-61" value="&lt;font face=&quot;Times New Roman&quot;&gt;Tok5&lt;/font&gt;" style="ellipse;whiteSpace=wrap;html=1;aspect=fixed;" vertex="1" parent="1">
          <mxGeometry x="985" y="10" width="40" height="40" as="geometry" />
        </mxCell>
        <mxCell id="5lzL2eHM6LopC9p1s4zt-62" style="edgeStyle=none;rounded=0;orthogonalLoop=1;jettySize=auto;html=1;exitX=0.5;exitY=0;exitDx=0;exitDy=0;entryX=0.5;entryY=1;entryDx=0;entryDy=0;" edge="1" parent="1" source="5lzL2eHM6LopC9p1s4zt-63" target="5lzL2eHM6LopC9p1s4zt-92">
          <mxGeometry relative="1" as="geometry" />
        </mxCell>
        <mxCell id="5lzL2eHM6LopC9p1s4zt-63" value="&lt;font face=&quot;Times New Roman&quot;&gt;SOP&lt;/font&gt;" style="ellipse;whiteSpace=wrap;html=1;aspect=fixed;fillColor=#e1d5e7;strokeColor=#9673a6;" vertex="1" parent="1">
          <mxGeometry x="665" y="170" width="40" height="40" as="geometry" />
        </mxCell>
        <mxCell id="5lzL2eHM6LopC9p1s4zt-64" style="edgeStyle=none;rounded=0;orthogonalLoop=1;jettySize=auto;html=1;exitX=0.5;exitY=0;exitDx=0;exitDy=0;entryX=0.5;entryY=1;entryDx=0;entryDy=0;" edge="1" parent="1" source="5lzL2eHM6LopC9p1s4zt-65" target="5lzL2eHM6LopC9p1s4zt-99">
          <mxGeometry relative="1" as="geometry" />
        </mxCell>
        <mxCell id="5lzL2eHM6LopC9p1s4zt-65" value="&lt;font face=&quot;Times New Roman&quot;&gt;Tok2&lt;/font&gt;" style="ellipse;whiteSpace=wrap;html=1;aspect=fixed;fillColor=#e1d5e7;strokeColor=#9673a6;" vertex="1" parent="1">
          <mxGeometry x="745" y="170" width="40" height="40" as="geometry" />
        </mxCell>
        <mxCell id="5lzL2eHM6LopC9p1s4zt-66" value="&lt;font face=&quot;Times New Roman&quot;&gt;Tok2&lt;/font&gt;" style="ellipse;whiteSpace=wrap;html=1;aspect=fixed;fillColor=#f8cecc;strokeColor=#b85450;" vertex="1" parent="1">
          <mxGeometry x="665" y="10" width="40" height="40" as="geometry" />
        </mxCell>
        <mxCell id="5lzL2eHM6LopC9p1s4zt-67" value="&lt;font face=&quot;Times New Roman&quot;&gt;Tok3&lt;/font&gt;" style="ellipse;whiteSpace=wrap;html=1;aspect=fixed;fillColor=#f8cecc;strokeColor=#b85450;" vertex="1" parent="1">
          <mxGeometry x="745" y="10" width="40" height="40" as="geometry" />
        </mxCell>
        <mxCell id="5lzL2eHM6LopC9p1s4zt-68" style="edgeStyle=none;rounded=0;orthogonalLoop=1;jettySize=auto;html=1;exitX=0.5;exitY=0;exitDx=0;exitDy=0;entryX=0.5;entryY=1;entryDx=0;entryDy=0;" edge="1" parent="1" source="5lzL2eHM6LopC9p1s4zt-69" target="5lzL2eHM6LopC9p1s4zt-101">
          <mxGeometry relative="1" as="geometry" />
        </mxCell>
        <mxCell id="5lzL2eHM6LopC9p1s4zt-69" value="&lt;font face=&quot;Times New Roman&quot;&gt;Tok3&lt;/font&gt;" style="ellipse;whiteSpace=wrap;html=1;aspect=fixed;fillColor=#e1d5e7;strokeColor=#9673a6;" vertex="1" parent="1">
          <mxGeometry x="825" y="170" width="40" height="40" as="geometry" />
        </mxCell>
        <mxCell id="5lzL2eHM6LopC9p1s4zt-70" value="&lt;font face=&quot;Times New Roman&quot;&gt;EOP&lt;/font&gt;" style="ellipse;whiteSpace=wrap;html=1;aspect=fixed;fillColor=#f8cecc;strokeColor=#b85450;" vertex="1" parent="1">
          <mxGeometry x="825" y="10" width="40" height="40" as="geometry" />
        </mxCell>
        <mxCell id="5lzL2eHM6LopC9p1s4zt-71" style="edgeStyle=none;rounded=0;orthogonalLoop=1;jettySize=auto;html=1;exitX=0.5;exitY=0;exitDx=0;exitDy=0;entryX=0.5;entryY=1;entryDx=0;entryDy=0;" edge="1" parent="1" source="5lzL2eHM6LopC9p1s4zt-72" target="5lzL2eHM6LopC9p1s4zt-58">
          <mxGeometry relative="1" as="geometry" />
        </mxCell>
        <mxCell id="5lzL2eHM6LopC9p1s4zt-72" value="" style="rounded=1;whiteSpace=wrap;html=1;" vertex="1" parent="1">
          <mxGeometry x="505" y="73" width="40" height="20" as="geometry" />
        </mxCell>
        <mxCell id="5lzL2eHM6LopC9p1s4zt-73" style="edgeStyle=none;rounded=0;orthogonalLoop=1;jettySize=auto;html=1;exitX=0.5;exitY=0;exitDx=0;exitDy=0;entryX=0.5;entryY=1;entryDx=0;entryDy=0;" edge="1" parent="1" source="5lzL2eHM6LopC9p1s4zt-74" target="5lzL2eHM6LopC9p1s4zt-59">
          <mxGeometry relative="1" as="geometry" />
        </mxCell>
        <mxCell id="5lzL2eHM6LopC9p1s4zt-74" value="" style="rounded=1;whiteSpace=wrap;html=1;" vertex="1" parent="1">
          <mxGeometry x="585" y="73" width="40" height="20" as="geometry" />
        </mxCell>
        <mxCell id="5lzL2eHM6LopC9p1s4zt-75" style="edgeStyle=none;rounded=0;orthogonalLoop=1;jettySize=auto;html=1;exitX=0.5;exitY=0;exitDx=0;exitDy=0;entryX=0.5;entryY=1;entryDx=0;entryDy=0;" edge="1" parent="1" source="5lzL2eHM6LopC9p1s4zt-76" target="5lzL2eHM6LopC9p1s4zt-66">
          <mxGeometry relative="1" as="geometry" />
        </mxCell>
        <mxCell id="5lzL2eHM6LopC9p1s4zt-76" value="" style="rounded=1;whiteSpace=wrap;html=1;fillColor=#d5e8d4;strokeColor=#82b366;" vertex="1" parent="1">
          <mxGeometry x="665" y="73" width="40" height="20" as="geometry" />
        </mxCell>
        <mxCell id="5lzL2eHM6LopC9p1s4zt-77" style="rounded=0;orthogonalLoop=1;jettySize=auto;html=1;exitX=0.5;exitY=0;exitDx=0;exitDy=0;entryX=0.5;entryY=1;entryDx=0;entryDy=0;endArrow=none;endFill=0;strokeWidth=1;strokeColor=#CCCCCC;" edge="1" parent="1" source="5lzL2eHM6LopC9p1s4zt-82" target="5lzL2eHM6LopC9p1s4zt-72">
          <mxGeometry relative="1" as="geometry" />
        </mxCell>
        <mxCell id="5lzL2eHM6LopC9p1s4zt-78" style="edgeStyle=none;rounded=0;orthogonalLoop=1;jettySize=auto;html=1;exitX=0.5;exitY=0;exitDx=0;exitDy=0;entryX=0.5;entryY=1;entryDx=0;entryDy=0;endArrow=none;endFill=0;strokeWidth=1;strokeColor=#CCCCCC;" edge="1" parent="1" source="5lzL2eHM6LopC9p1s4zt-82" target="5lzL2eHM6LopC9p1s4zt-74">
          <mxGeometry relative="1" as="geometry" />
        </mxCell>
        <mxCell id="5lzL2eHM6LopC9p1s4zt-79" style="edgeStyle=none;rounded=0;orthogonalLoop=1;jettySize=auto;html=1;exitX=0.5;exitY=0;exitDx=0;exitDy=0;entryX=0.5;entryY=1;entryDx=0;entryDy=0;endArrow=none;endFill=0;strokeWidth=1;strokeColor=#CCCCCC;" edge="1" parent="1" source="5lzL2eHM6LopC9p1s4zt-82" target="5lzL2eHM6LopC9p1s4zt-76">
          <mxGeometry relative="1" as="geometry" />
        </mxCell>
        <mxCell id="5lzL2eHM6LopC9p1s4zt-80" style="edgeStyle=none;rounded=0;orthogonalLoop=1;jettySize=auto;html=1;exitX=0.5;exitY=0;exitDx=0;exitDy=0;entryX=0.5;entryY=1;entryDx=0;entryDy=0;endArrow=none;endFill=0;strokeColor=#CCCCCC;" edge="1" parent="1" source="5lzL2eHM6LopC9p1s4zt-82" target="5lzL2eHM6LopC9p1s4zt-94">
          <mxGeometry relative="1" as="geometry" />
        </mxCell>
        <mxCell id="5lzL2eHM6LopC9p1s4zt-81" style="edgeStyle=none;rounded=0;orthogonalLoop=1;jettySize=auto;html=1;exitX=0.5;exitY=0;exitDx=0;exitDy=0;entryX=0.5;entryY=1;entryDx=0;entryDy=0;endArrow=none;endFill=0;strokeColor=#CCCCCC;" edge="1" parent="1" source="5lzL2eHM6LopC9p1s4zt-82" target="5lzL2eHM6LopC9p1s4zt-96">
          <mxGeometry relative="1" as="geometry">
            <mxPoint x="845" y="90" as="targetPoint" />
          </mxGeometry>
        </mxCell>
        <mxCell id="5lzL2eHM6LopC9p1s4zt-82" value="" style="rounded=1;whiteSpace=wrap;html=1;" vertex="1" parent="1">
          <mxGeometry x="505" y="113" width="40" height="20" as="geometry" />
        </mxCell>
        <mxCell id="5lzL2eHM6LopC9p1s4zt-83" style="rounded=0;orthogonalLoop=1;jettySize=auto;html=1;exitX=0.5;exitY=0;exitDx=0;exitDy=0;entryX=0.5;entryY=1;entryDx=0;entryDy=0;endArrow=none;endFill=0;strokeWidth=1;strokeColor=#CCCCCC;" edge="1" parent="1" source="5lzL2eHM6LopC9p1s4zt-88" target="5lzL2eHM6LopC9p1s4zt-74">
          <mxGeometry relative="1" as="geometry" />
        </mxCell>
        <mxCell id="5lzL2eHM6LopC9p1s4zt-84" style="rounded=0;orthogonalLoop=1;jettySize=auto;html=1;exitX=0.5;exitY=0;exitDx=0;exitDy=0;endArrow=none;endFill=0;strokeWidth=1;strokeColor=#CCCCCC;" edge="1" parent="1" source="5lzL2eHM6LopC9p1s4zt-88">
          <mxGeometry relative="1" as="geometry">
            <mxPoint x="685" y="93" as="targetPoint" />
          </mxGeometry>
        </mxCell>
        <mxCell id="5lzL2eHM6LopC9p1s4zt-85" style="edgeStyle=none;rounded=0;orthogonalLoop=1;jettySize=auto;html=1;exitX=0.5;exitY=0;exitDx=0;exitDy=0;entryX=0.5;entryY=1;entryDx=0;entryDy=0;endArrow=none;endFill=0;strokeWidth=1;strokeColor=#CCCCCC;" edge="1" parent="1" source="5lzL2eHM6LopC9p1s4zt-88" target="5lzL2eHM6LopC9p1s4zt-72">
          <mxGeometry relative="1" as="geometry" />
        </mxCell>
        <mxCell id="5lzL2eHM6LopC9p1s4zt-86" style="edgeStyle=none;rounded=0;orthogonalLoop=1;jettySize=auto;html=1;exitX=0.5;exitY=0;exitDx=0;exitDy=0;entryX=0.5;entryY=1;entryDx=0;entryDy=0;endArrow=none;endFill=0;strokeColor=#CCCCCC;" edge="1" parent="1" source="5lzL2eHM6LopC9p1s4zt-88" target="5lzL2eHM6LopC9p1s4zt-94">
          <mxGeometry relative="1" as="geometry">
            <mxPoint x="725" y="100" as="targetPoint" />
          </mxGeometry>
        </mxCell>
        <mxCell id="5lzL2eHM6LopC9p1s4zt-87" style="edgeStyle=none;rounded=0;orthogonalLoop=1;jettySize=auto;html=1;exitX=0.5;exitY=0;exitDx=0;exitDy=0;entryX=0.5;entryY=1;entryDx=0;entryDy=0;endArrow=none;endFill=0;strokeColor=#CCCCCC;" edge="1" parent="1" source="5lzL2eHM6LopC9p1s4zt-88" target="5lzL2eHM6LopC9p1s4zt-96">
          <mxGeometry relative="1" as="geometry" />
        </mxCell>
        <mxCell id="5lzL2eHM6LopC9p1s4zt-88" value="" style="rounded=1;whiteSpace=wrap;html=1;" vertex="1" parent="1">
          <mxGeometry x="585" y="113" width="40" height="20" as="geometry" />
        </mxCell>
        <mxCell id="5lzL2eHM6LopC9p1s4zt-89" style="edgeStyle=none;rounded=0;orthogonalLoop=1;jettySize=auto;html=1;exitX=0.5;exitY=0;exitDx=0;exitDy=0;endArrow=none;endFill=0;strokeWidth=1;strokeColor=#000000;" edge="1" parent="1" source="5lzL2eHM6LopC9p1s4zt-92">
          <mxGeometry relative="1" as="geometry">
            <mxPoint x="685" y="93" as="targetPoint" />
          </mxGeometry>
        </mxCell>
        <mxCell id="5lzL2eHM6LopC9p1s4zt-90" style="edgeStyle=none;rounded=0;orthogonalLoop=1;jettySize=auto;html=1;exitX=0.5;exitY=0;exitDx=0;exitDy=0;entryX=0.5;entryY=1;entryDx=0;entryDy=0;endArrow=none;endFill=0;strokeWidth=1;strokeColor=#000000;" edge="1" parent="1" source="5lzL2eHM6LopC9p1s4zt-92" target="5lzL2eHM6LopC9p1s4zt-94">
          <mxGeometry relative="1" as="geometry" />
        </mxCell>
        <mxCell id="5lzL2eHM6LopC9p1s4zt-91" style="edgeStyle=none;rounded=0;orthogonalLoop=1;jettySize=auto;html=1;exitX=0.5;exitY=0;exitDx=0;exitDy=0;entryX=0.5;entryY=1;entryDx=0;entryDy=0;endArrow=none;endFill=0;strokeWidth=1;strokeColor=#000000;" edge="1" parent="1" source="5lzL2eHM6LopC9p1s4zt-92" target="5lzL2eHM6LopC9p1s4zt-96">
          <mxGeometry relative="1" as="geometry" />
        </mxCell>
        <mxCell id="5lzL2eHM6LopC9p1s4zt-92" value="" style="rounded=1;whiteSpace=wrap;html=1;fillColor=#d5e8d4;strokeColor=#82b366;" vertex="1" parent="1">
          <mxGeometry x="665" y="113" width="40" height="20" as="geometry" />
        </mxCell>
        <mxCell id="5lzL2eHM6LopC9p1s4zt-93" style="edgeStyle=none;rounded=0;orthogonalLoop=1;jettySize=auto;html=1;exitX=0.5;exitY=0;exitDx=0;exitDy=0;entryX=0.5;entryY=1;entryDx=0;entryDy=0;" edge="1" parent="1" source="5lzL2eHM6LopC9p1s4zt-94" target="5lzL2eHM6LopC9p1s4zt-67">
          <mxGeometry relative="1" as="geometry" />
        </mxCell>
        <mxCell id="5lzL2eHM6LopC9p1s4zt-94" value="" style="rounded=1;whiteSpace=wrap;html=1;fillColor=#d5e8d4;strokeColor=#82b366;" vertex="1" parent="1">
          <mxGeometry x="745" y="73" width="40" height="20" as="geometry" />
        </mxCell>
        <mxCell id="5lzL2eHM6LopC9p1s4zt-95" style="edgeStyle=none;rounded=0;orthogonalLoop=1;jettySize=auto;html=1;exitX=0.5;exitY=0;exitDx=0;exitDy=0;entryX=0.5;entryY=1;entryDx=0;entryDy=0;" edge="1" parent="1" source="5lzL2eHM6LopC9p1s4zt-96" target="5lzL2eHM6LopC9p1s4zt-70">
          <mxGeometry relative="1" as="geometry" />
        </mxCell>
        <mxCell id="5lzL2eHM6LopC9p1s4zt-96" value="" style="rounded=1;whiteSpace=wrap;html=1;fillColor=#d5e8d4;strokeColor=#82b366;" vertex="1" parent="1">
          <mxGeometry x="825" y="73" width="40" height="20" as="geometry" />
        </mxCell>
        <mxCell id="5lzL2eHM6LopC9p1s4zt-97" style="rounded=0;orthogonalLoop=1;jettySize=auto;html=1;exitX=0.5;exitY=0;exitDx=0;exitDy=0;entryX=0.5;entryY=1;entryDx=0;entryDy=0;endArrow=none;endFill=0;strokeWidth=1;strokeColor=#000000;" edge="1" parent="1" source="5lzL2eHM6LopC9p1s4zt-99" target="5lzL2eHM6LopC9p1s4zt-94">
          <mxGeometry relative="1" as="geometry" />
        </mxCell>
        <mxCell id="5lzL2eHM6LopC9p1s4zt-98" style="rounded=0;orthogonalLoop=1;jettySize=auto;html=1;exitX=0.5;exitY=0;exitDx=0;exitDy=0;endArrow=none;endFill=0;strokeWidth=1;strokeColor=#000000;" edge="1" parent="1" source="5lzL2eHM6LopC9p1s4zt-99">
          <mxGeometry relative="1" as="geometry">
            <mxPoint x="845" y="93" as="targetPoint" />
          </mxGeometry>
        </mxCell>
        <mxCell id="5lzL2eHM6LopC9p1s4zt-99" value="" style="rounded=1;whiteSpace=wrap;html=1;fillColor=#d5e8d4;strokeColor=#82b366;" vertex="1" parent="1">
          <mxGeometry x="745" y="113" width="40" height="20" as="geometry" />
        </mxCell>
        <mxCell id="5lzL2eHM6LopC9p1s4zt-100" style="edgeStyle=none;rounded=0;orthogonalLoop=1;jettySize=auto;html=1;exitX=0.5;exitY=0;exitDx=0;exitDy=0;endArrow=none;endFill=0;strokeWidth=1;strokeColor=#000000;" edge="1" parent="1" source="5lzL2eHM6LopC9p1s4zt-101">
          <mxGeometry relative="1" as="geometry">
            <mxPoint x="845" y="93" as="targetPoint" />
          </mxGeometry>
        </mxCell>
        <mxCell id="5lzL2eHM6LopC9p1s4zt-101" value="" style="rounded=1;whiteSpace=wrap;html=1;fillColor=#d5e8d4;strokeColor=#82b366;" vertex="1" parent="1">
          <mxGeometry x="825" y="113" width="40" height="20" as="geometry" />
        </mxCell>
        <mxCell id="5lzL2eHM6LopC9p1s4zt-102" style="edgeStyle=none;rounded=0;orthogonalLoop=1;jettySize=auto;html=1;exitX=0.5;exitY=0;exitDx=0;exitDy=0;entryX=0.5;entryY=1;entryDx=0;entryDy=0;" edge="1" parent="1" source="5lzL2eHM6LopC9p1s4zt-103" target="5lzL2eHM6LopC9p1s4zt-60">
          <mxGeometry relative="1" as="geometry" />
        </mxCell>
        <mxCell id="5lzL2eHM6LopC9p1s4zt-103" value="" style="rounded=1;whiteSpace=wrap;html=1;" vertex="1" parent="1">
          <mxGeometry x="905" y="73" width="40" height="20" as="geometry" />
        </mxCell>
        <mxCell id="5lzL2eHM6LopC9p1s4zt-104" style="edgeStyle=none;rounded=0;orthogonalLoop=1;jettySize=auto;html=1;exitX=0.5;exitY=0;exitDx=0;exitDy=0;entryX=0.5;entryY=1;entryDx=0;entryDy=0;" edge="1" parent="1" source="5lzL2eHM6LopC9p1s4zt-105" target="5lzL2eHM6LopC9p1s4zt-61">
          <mxGeometry relative="1" as="geometry" />
        </mxCell>
        <mxCell id="5lzL2eHM6LopC9p1s4zt-105" value="" style="rounded=1;whiteSpace=wrap;html=1;" vertex="1" parent="1">
          <mxGeometry x="985" y="73" width="40" height="20" as="geometry" />
        </mxCell>
        <mxCell id="5lzL2eHM6LopC9p1s4zt-106" style="rounded=0;orthogonalLoop=1;jettySize=auto;html=1;exitX=0.5;exitY=0;exitDx=0;exitDy=0;entryX=0.5;entryY=1;entryDx=0;entryDy=0;endArrow=none;endFill=0;strokeWidth=1;strokeColor=#CCCCCC;" edge="1" parent="1" source="5lzL2eHM6LopC9p1s4zt-112" target="5lzL2eHM6LopC9p1s4zt-103">
          <mxGeometry relative="1" as="geometry" />
        </mxCell>
        <mxCell id="5lzL2eHM6LopC9p1s4zt-107" style="rounded=0;orthogonalLoop=1;jettySize=auto;html=1;exitX=0.5;exitY=0;exitDx=0;exitDy=0;endArrow=none;endFill=0;strokeWidth=1;strokeColor=#CCCCCC;" edge="1" parent="1" source="5lzL2eHM6LopC9p1s4zt-112">
          <mxGeometry relative="1" as="geometry">
            <mxPoint x="1005" y="93" as="targetPoint" />
          </mxGeometry>
        </mxCell>
        <mxCell id="5lzL2eHM6LopC9p1s4zt-108" style="edgeStyle=none;rounded=0;orthogonalLoop=1;jettySize=auto;html=1;exitX=0.5;exitY=0;exitDx=0;exitDy=0;entryX=0.5;entryY=1;entryDx=0;entryDy=0;endArrow=none;endFill=0;strokeWidth=1;strokeColor=#CCCCCC;" edge="1" parent="1" source="5lzL2eHM6LopC9p1s4zt-112" target="5lzL2eHM6LopC9p1s4zt-76">
          <mxGeometry relative="1" as="geometry" />
        </mxCell>
        <mxCell id="5lzL2eHM6LopC9p1s4zt-109" style="edgeStyle=none;rounded=0;orthogonalLoop=1;jettySize=auto;html=1;exitX=0.5;exitY=0;exitDx=0;exitDy=0;entryX=0.5;entryY=1;entryDx=0;entryDy=0;endArrow=none;endFill=0;strokeWidth=1;strokeColor=#CCCCCC;" edge="1" parent="1" source="5lzL2eHM6LopC9p1s4zt-112" target="5lzL2eHM6LopC9p1s4zt-94">
          <mxGeometry relative="1" as="geometry" />
        </mxCell>
        <mxCell id="5lzL2eHM6LopC9p1s4zt-110" style="edgeStyle=none;rounded=0;orthogonalLoop=1;jettySize=auto;html=1;exitX=0.5;exitY=0;exitDx=0;exitDy=0;entryX=0.5;entryY=1;entryDx=0;entryDy=0;endArrow=none;endFill=0;strokeWidth=1;strokeColor=#CCCCCC;" edge="1" parent="1" source="5lzL2eHM6LopC9p1s4zt-112" target="5lzL2eHM6LopC9p1s4zt-96">
          <mxGeometry relative="1" as="geometry" />
        </mxCell>
        <mxCell id="5lzL2eHM6LopC9p1s4zt-111" style="edgeStyle=none;rounded=0;orthogonalLoop=1;jettySize=auto;html=1;exitX=0.5;exitY=0;exitDx=0;exitDy=0;entryX=0.5;entryY=1;entryDx=0;entryDy=0;strokeColor=#CCCCCC;endArrow=none;endFill=0;" edge="1" parent="1" source="5lzL2eHM6LopC9p1s4zt-112" target="5lzL2eHM6LopC9p1s4zt-74">
          <mxGeometry relative="1" as="geometry" />
        </mxCell>
        <mxCell id="5lzL2eHM6LopC9p1s4zt-112" value="" style="rounded=1;whiteSpace=wrap;html=1;" vertex="1" parent="1">
          <mxGeometry x="905" y="113" width="40" height="20" as="geometry" />
        </mxCell>
        <mxCell id="5lzL2eHM6LopC9p1s4zt-113" style="edgeStyle=none;rounded=0;orthogonalLoop=1;jettySize=auto;html=1;exitX=0.5;exitY=0;exitDx=0;exitDy=0;endArrow=none;endFill=0;strokeWidth=1;strokeColor=#CCCCCC;" edge="1" parent="1" source="5lzL2eHM6LopC9p1s4zt-117">
          <mxGeometry relative="1" as="geometry">
            <mxPoint x="1005" y="93" as="targetPoint" />
          </mxGeometry>
        </mxCell>
        <mxCell id="5lzL2eHM6LopC9p1s4zt-114" style="edgeStyle=none;rounded=0;orthogonalLoop=1;jettySize=auto;html=1;exitX=0.5;exitY=0;exitDx=0;exitDy=0;entryX=0.5;entryY=1;entryDx=0;entryDy=0;endArrow=none;endFill=0;strokeWidth=1;strokeColor=#CCCCCC;" edge="1" parent="1" source="5lzL2eHM6LopC9p1s4zt-117" target="5lzL2eHM6LopC9p1s4zt-103">
          <mxGeometry relative="1" as="geometry" />
        </mxCell>
        <mxCell id="5lzL2eHM6LopC9p1s4zt-115" style="edgeStyle=none;rounded=0;orthogonalLoop=1;jettySize=auto;html=1;exitX=0.5;exitY=0;exitDx=0;exitDy=0;entryX=0.5;entryY=1;entryDx=0;entryDy=0;endArrow=none;endFill=0;strokeWidth=1;strokeColor=#CCCCCC;" edge="1" parent="1" source="5lzL2eHM6LopC9p1s4zt-117" target="5lzL2eHM6LopC9p1s4zt-96">
          <mxGeometry relative="1" as="geometry" />
        </mxCell>
        <mxCell id="5lzL2eHM6LopC9p1s4zt-116" style="edgeStyle=none;rounded=0;orthogonalLoop=1;jettySize=auto;html=1;exitX=0.5;exitY=0;exitDx=0;exitDy=0;entryX=0.5;entryY=1;entryDx=0;entryDy=0;endArrow=none;endFill=0;strokeColor=#CCCCCC;" edge="1" parent="1" source="5lzL2eHM6LopC9p1s4zt-117" target="5lzL2eHM6LopC9p1s4zt-76">
          <mxGeometry relative="1" as="geometry">
            <mxPoint x="685" y="90" as="targetPoint" />
          </mxGeometry>
        </mxCell>
        <mxCell id="5lzL2eHM6LopC9p1s4zt-117" value="" style="rounded=1;whiteSpace=wrap;html=1;" vertex="1" parent="1">
          <mxGeometry x="985" y="113" width="40" height="20" as="geometry" />
        </mxCell>
        <mxCell id="5lzL2eHM6LopC9p1s4zt-118" value="" style="shape=cross;whiteSpace=wrap;html=1;fillColor=#f5f5f5;fontColor=#333333;strokeColor=#666666;" vertex="1" parent="1">
          <mxGeometry x="435" y="70" width="40" height="40" as="geometry" />
        </mxCell>
        <mxCell id="5lzL2eHM6LopC9p1s4zt-119" value="&lt;font face=&quot;Times New Roman&quot;&gt;BOS&lt;/font&gt;" style="ellipse;whiteSpace=wrap;html=1;aspect=fixed;fillColor=#e1d5e7;strokeColor=#9673a6;" vertex="1" parent="1">
          <mxGeometry x="655" y="450" width="40" height="40" as="geometry" />
        </mxCell>
        <mxCell id="5lzL2eHM6LopC9p1s4zt-120" value="&lt;font face=&quot;Times New Roman&quot;&gt;Tok5&lt;/font&gt;" style="ellipse;whiteSpace=wrap;html=1;aspect=fixed;fillColor=#e1d5e7;strokeColor=#9673a6;" vertex="1" parent="1">
          <mxGeometry x="735" y="450" width="40" height="40" as="geometry" />
        </mxCell>
        <mxCell id="5lzL2eHM6LopC9p1s4zt-121" value="&lt;font face=&quot;Times New Roman&quot;&gt;Tokn&lt;/font&gt;" style="ellipse;whiteSpace=wrap;html=1;aspect=fixed;fillColor=#e1d5e7;strokeColor=#9673a6;" vertex="1" parent="1">
          <mxGeometry x="835" y="450" width="40" height="40" as="geometry" />
        </mxCell>
        <mxCell id="5lzL2eHM6LopC9p1s4zt-122" value="&lt;font face=&quot;Times New Roman&quot;&gt;Tok6&lt;/font&gt;" style="ellipse;whiteSpace=wrap;html=1;aspect=fixed;fillColor=#f8cecc;strokeColor=#b85450;" vertex="1" parent="1">
          <mxGeometry x="655" y="290" width="40" height="40" as="geometry" />
        </mxCell>
        <mxCell id="5lzL2eHM6LopC9p1s4zt-123" value="&lt;font face=&quot;Times New Roman&quot;&gt;Tok7&lt;/font&gt;" style="ellipse;whiteSpace=wrap;html=1;aspect=fixed;fillColor=#f8cecc;strokeColor=#b85450;" vertex="1" parent="1">
          <mxGeometry x="735" y="290" width="40" height="40" as="geometry" />
        </mxCell>
        <mxCell id="5lzL2eHM6LopC9p1s4zt-124" value="&lt;font face=&quot;Times New Roman&quot;&gt;EOS&lt;/font&gt;" style="ellipse;whiteSpace=wrap;html=1;aspect=fixed;fillColor=#f8cecc;strokeColor=#b85450;" vertex="1" parent="1">
          <mxGeometry x="835" y="290" width="40" height="40" as="geometry" />
        </mxCell>
        <mxCell id="5lzL2eHM6LopC9p1s4zt-125" style="edgeStyle=none;rounded=0;orthogonalLoop=1;jettySize=auto;html=1;exitX=0.5;exitY=0;exitDx=0;exitDy=0;entryX=0.5;entryY=1;entryDx=0;entryDy=0;" edge="1" parent="1" source="5lzL2eHM6LopC9p1s4zt-126" target="5lzL2eHM6LopC9p1s4zt-122">
          <mxGeometry relative="1" as="geometry" />
        </mxCell>
        <mxCell id="5lzL2eHM6LopC9p1s4zt-126" value="" style="rounded=1;whiteSpace=wrap;html=1;fillColor=#ffe6cc;strokeColor=#d79b00;" vertex="1" parent="1">
          <mxGeometry x="655" y="353" width="40" height="20" as="geometry" />
        </mxCell>
        <mxCell id="5lzL2eHM6LopC9p1s4zt-127" style="edgeStyle=none;rounded=0;orthogonalLoop=1;jettySize=auto;html=1;exitX=0.5;exitY=0;exitDx=0;exitDy=0;endArrow=none;endFill=0;strokeWidth=1;strokeColor=#000000;" edge="1" parent="1" source="5lzL2eHM6LopC9p1s4zt-130">
          <mxGeometry relative="1" as="geometry">
            <mxPoint x="675" y="373" as="targetPoint" />
          </mxGeometry>
        </mxCell>
        <mxCell id="5lzL2eHM6LopC9p1s4zt-128" style="edgeStyle=none;rounded=0;orthogonalLoop=1;jettySize=auto;html=1;exitX=0.5;exitY=0;exitDx=0;exitDy=0;entryX=0.5;entryY=1;entryDx=0;entryDy=0;endArrow=none;endFill=0;strokeWidth=1;strokeColor=#000000;" edge="1" parent="1" source="5lzL2eHM6LopC9p1s4zt-130" target="5lzL2eHM6LopC9p1s4zt-132">
          <mxGeometry relative="1" as="geometry" />
        </mxCell>
        <mxCell id="5lzL2eHM6LopC9p1s4zt-129" style="edgeStyle=none;rounded=0;orthogonalLoop=1;jettySize=auto;html=1;exitX=0.5;exitY=0;exitDx=0;exitDy=0;entryX=0.5;entryY=1;entryDx=0;entryDy=0;endArrow=none;endFill=0;strokeWidth=1;strokeColor=#000000;" edge="1" parent="1" source="5lzL2eHM6LopC9p1s4zt-130" target="5lzL2eHM6LopC9p1s4zt-134">
          <mxGeometry relative="1" as="geometry" />
        </mxCell>
        <mxCell id="5lzL2eHM6LopC9p1s4zt-130" value="" style="rounded=1;whiteSpace=wrap;html=1;fillColor=#ffe6cc;strokeColor=#d79b00;" vertex="1" parent="1">
          <mxGeometry x="655" y="393" width="40" height="20" as="geometry" />
        </mxCell>
        <mxCell id="5lzL2eHM6LopC9p1s4zt-131" style="edgeStyle=none;rounded=0;orthogonalLoop=1;jettySize=auto;html=1;exitX=0.5;exitY=0;exitDx=0;exitDy=0;entryX=0.5;entryY=1;entryDx=0;entryDy=0;" edge="1" parent="1" source="5lzL2eHM6LopC9p1s4zt-132" target="5lzL2eHM6LopC9p1s4zt-123">
          <mxGeometry relative="1" as="geometry" />
        </mxCell>
        <mxCell id="5lzL2eHM6LopC9p1s4zt-132" value="" style="rounded=1;whiteSpace=wrap;html=1;fillColor=#ffe6cc;strokeColor=#d79b00;" vertex="1" parent="1">
          <mxGeometry x="735" y="353" width="40" height="20" as="geometry" />
        </mxCell>
        <mxCell id="5lzL2eHM6LopC9p1s4zt-133" style="edgeStyle=none;rounded=0;orthogonalLoop=1;jettySize=auto;html=1;exitX=0.5;exitY=0;exitDx=0;exitDy=0;entryX=0.5;entryY=1;entryDx=0;entryDy=0;" edge="1" parent="1" source="5lzL2eHM6LopC9p1s4zt-134" target="5lzL2eHM6LopC9p1s4zt-124">
          <mxGeometry relative="1" as="geometry" />
        </mxCell>
        <mxCell id="5lzL2eHM6LopC9p1s4zt-134" value="" style="rounded=1;whiteSpace=wrap;html=1;fillColor=#ffe6cc;strokeColor=#d79b00;" vertex="1" parent="1">
          <mxGeometry x="835" y="353" width="40" height="20" as="geometry" />
        </mxCell>
        <mxCell id="5lzL2eHM6LopC9p1s4zt-135" style="rounded=0;orthogonalLoop=1;jettySize=auto;html=1;exitX=0.5;exitY=0;exitDx=0;exitDy=0;entryX=0.5;entryY=1;entryDx=0;entryDy=0;endArrow=none;endFill=0;strokeWidth=1;strokeColor=#000000;" edge="1" parent="1" source="5lzL2eHM6LopC9p1s4zt-137" target="5lzL2eHM6LopC9p1s4zt-132">
          <mxGeometry relative="1" as="geometry" />
        </mxCell>
        <mxCell id="5lzL2eHM6LopC9p1s4zt-136" style="edgeStyle=none;rounded=0;orthogonalLoop=1;jettySize=auto;html=1;exitX=0.5;exitY=0;exitDx=0;exitDy=0;entryX=0.5;entryY=1;entryDx=0;entryDy=0;endArrow=none;endFill=0;" edge="1" parent="1" source="5lzL2eHM6LopC9p1s4zt-137" target="5lzL2eHM6LopC9p1s4zt-134">
          <mxGeometry relative="1" as="geometry" />
        </mxCell>
        <mxCell id="5lzL2eHM6LopC9p1s4zt-137" value="" style="rounded=1;whiteSpace=wrap;html=1;fillColor=#ffe6cc;strokeColor=#d79b00;" vertex="1" parent="1">
          <mxGeometry x="735" y="393" width="40" height="20" as="geometry" />
        </mxCell>
        <mxCell id="5lzL2eHM6LopC9p1s4zt-138" style="edgeStyle=none;rounded=0;orthogonalLoop=1;jettySize=auto;html=1;exitX=0.5;exitY=0;exitDx=0;exitDy=0;endArrow=none;endFill=0;strokeWidth=1;strokeColor=#000000;" edge="1" parent="1" source="5lzL2eHM6LopC9p1s4zt-139">
          <mxGeometry relative="1" as="geometry">
            <mxPoint x="855" y="373" as="targetPoint" />
          </mxGeometry>
        </mxCell>
        <mxCell id="5lzL2eHM6LopC9p1s4zt-139" value="" style="rounded=1;whiteSpace=wrap;html=1;fillColor=#ffe6cc;strokeColor=#d79b00;" vertex="1" parent="1">
          <mxGeometry x="835" y="393" width="40" height="20" as="geometry" />
        </mxCell>
        <mxCell id="5lzL2eHM6LopC9p1s4zt-140" style="edgeStyle=none;rounded=0;orthogonalLoop=1;jettySize=auto;html=1;exitX=0.5;exitY=0;exitDx=0;exitDy=0;entryX=0.5;entryY=1;entryDx=0;entryDy=0;" edge="1" parent="1" source="5lzL2eHM6LopC9p1s4zt-141" target="5lzL2eHM6LopC9p1s4zt-172">
          <mxGeometry relative="1" as="geometry" />
        </mxCell>
        <mxCell id="5lzL2eHM6LopC9p1s4zt-141" value="&lt;font face=&quot;Times New Roman&quot;&gt;Tok0&lt;/font&gt;" style="ellipse;whiteSpace=wrap;html=1;aspect=fixed;fillColor=#e1d5e7;strokeColor=#9673a6;" vertex="1" parent="1">
          <mxGeometry x="95" y="450" width="40" height="40" as="geometry" />
        </mxCell>
        <mxCell id="5lzL2eHM6LopC9p1s4zt-142" style="edgeStyle=none;rounded=0;orthogonalLoop=1;jettySize=auto;html=1;exitX=0.5;exitY=0;exitDx=0;exitDy=0;entryX=0.5;entryY=1;entryDx=0;entryDy=0;" edge="1" parent="1" source="5lzL2eHM6LopC9p1s4zt-143" target="5lzL2eHM6LopC9p1s4zt-179">
          <mxGeometry relative="1" as="geometry" />
        </mxCell>
        <mxCell id="5lzL2eHM6LopC9p1s4zt-143" value="&lt;font face=&quot;Times New Roman&quot;&gt;Tok1&lt;/font&gt;" style="ellipse;whiteSpace=wrap;html=1;aspect=fixed;fillColor=#e1d5e7;strokeColor=#9673a6;" vertex="1" parent="1">
          <mxGeometry x="175" y="450" width="40" height="40" as="geometry" />
        </mxCell>
        <mxCell id="5lzL2eHM6LopC9p1s4zt-144" style="edgeStyle=none;rounded=0;orthogonalLoop=1;jettySize=auto;html=1;exitX=0.5;exitY=0;exitDx=0;exitDy=0;entryX=0.5;entryY=1;entryDx=0;entryDy=0;" edge="1" parent="1" source="5lzL2eHM6LopC9p1s4zt-145" target="5lzL2eHM6LopC9p1s4zt-205">
          <mxGeometry relative="1" as="geometry" />
        </mxCell>
        <mxCell id="5lzL2eHM6LopC9p1s4zt-145" value="&lt;font face=&quot;Times New Roman&quot;&gt;Tok4&lt;/font&gt;" style="ellipse;whiteSpace=wrap;html=1;aspect=fixed;fillColor=#e1d5e7;strokeColor=#9673a6;" vertex="1" parent="1">
          <mxGeometry x="495" y="450" width="40" height="40" as="geometry" />
        </mxCell>
        <mxCell id="5lzL2eHM6LopC9p1s4zt-146" style="edgeStyle=none;rounded=0;orthogonalLoop=1;jettySize=auto;html=1;exitX=0.5;exitY=0;exitDx=0;exitDy=0;entryX=0.5;entryY=1;entryDx=0;entryDy=0;" edge="1" parent="1" source="5lzL2eHM6LopC9p1s4zt-147" target="5lzL2eHM6LopC9p1s4zt-211">
          <mxGeometry relative="1" as="geometry" />
        </mxCell>
        <mxCell id="5lzL2eHM6LopC9p1s4zt-147" value="&lt;font face=&quot;Times New Roman&quot;&gt;Tok5&lt;/font&gt;" style="ellipse;whiteSpace=wrap;html=1;aspect=fixed;fillColor=#e1d5e7;strokeColor=#9673a6;" vertex="1" parent="1">
          <mxGeometry x="575" y="450" width="40" height="40" as="geometry" />
        </mxCell>
        <mxCell id="5lzL2eHM6LopC9p1s4zt-148" value="&lt;font face=&quot;Times New Roman&quot;&gt;Tok0&lt;/font&gt;" style="ellipse;whiteSpace=wrap;html=1;aspect=fixed;" vertex="1" parent="1">
          <mxGeometry x="95" y="290" width="40" height="40" as="geometry" />
        </mxCell>
        <mxCell id="5lzL2eHM6LopC9p1s4zt-149" value="&lt;font face=&quot;Times New Roman&quot;&gt;Tok1&lt;/font&gt;" style="ellipse;whiteSpace=wrap;html=1;aspect=fixed;" vertex="1" parent="1">
          <mxGeometry x="175" y="290" width="40" height="40" as="geometry" />
        </mxCell>
        <mxCell id="5lzL2eHM6LopC9p1s4zt-150" value="&lt;font face=&quot;Times New Roman&quot;&gt;Tok4&lt;/font&gt;" style="ellipse;whiteSpace=wrap;html=1;aspect=fixed;" vertex="1" parent="1">
          <mxGeometry x="495" y="290" width="40" height="40" as="geometry" />
        </mxCell>
        <mxCell id="5lzL2eHM6LopC9p1s4zt-151" value="&lt;font face=&quot;Times New Roman&quot;&gt;Tok5&lt;/font&gt;" style="ellipse;whiteSpace=wrap;html=1;aspect=fixed;" vertex="1" parent="1">
          <mxGeometry x="575" y="290" width="40" height="40" as="geometry" />
        </mxCell>
        <mxCell id="5lzL2eHM6LopC9p1s4zt-152" style="edgeStyle=none;rounded=0;orthogonalLoop=1;jettySize=auto;html=1;exitX=0.5;exitY=0;exitDx=0;exitDy=0;entryX=0.5;entryY=1;entryDx=0;entryDy=0;" edge="1" parent="1" source="5lzL2eHM6LopC9p1s4zt-153" target="5lzL2eHM6LopC9p1s4zt-183">
          <mxGeometry relative="1" as="geometry" />
        </mxCell>
        <mxCell id="5lzL2eHM6LopC9p1s4zt-153" value="&lt;font face=&quot;Times New Roman&quot;&gt;SOP&lt;/font&gt;" style="ellipse;whiteSpace=wrap;html=1;aspect=fixed;fillColor=#e1d5e7;strokeColor=#9673a6;" vertex="1" parent="1">
          <mxGeometry x="255" y="450" width="40" height="40" as="geometry" />
        </mxCell>
        <mxCell id="5lzL2eHM6LopC9p1s4zt-154" style="edgeStyle=none;rounded=0;orthogonalLoop=1;jettySize=auto;html=1;exitX=0.5;exitY=0;exitDx=0;exitDy=0;entryX=0.5;entryY=1;entryDx=0;entryDy=0;" edge="1" parent="1" source="5lzL2eHM6LopC9p1s4zt-155" target="5lzL2eHM6LopC9p1s4zt-191">
          <mxGeometry relative="1" as="geometry" />
        </mxCell>
        <mxCell id="5lzL2eHM6LopC9p1s4zt-155" value="&lt;font face=&quot;Times New Roman&quot;&gt;Tok2&lt;/font&gt;" style="ellipse;whiteSpace=wrap;html=1;aspect=fixed;fillColor=#e1d5e7;strokeColor=#9673a6;" vertex="1" parent="1">
          <mxGeometry x="335" y="450" width="40" height="40" as="geometry" />
        </mxCell>
        <mxCell id="5lzL2eHM6LopC9p1s4zt-156" value="&lt;font face=&quot;Times New Roman&quot;&gt;Tok2&lt;/font&gt;" style="ellipse;whiteSpace=wrap;html=1;aspect=fixed;fillColor=#f8cecc;strokeColor=#b85450;" vertex="1" parent="1">
          <mxGeometry x="255" y="290" width="40" height="40" as="geometry" />
        </mxCell>
        <mxCell id="5lzL2eHM6LopC9p1s4zt-157" value="&lt;font face=&quot;Times New Roman&quot;&gt;Tok3&lt;/font&gt;" style="ellipse;whiteSpace=wrap;html=1;aspect=fixed;fillColor=#f8cecc;strokeColor=#b85450;" vertex="1" parent="1">
          <mxGeometry x="335" y="290" width="40" height="40" as="geometry" />
        </mxCell>
        <mxCell id="5lzL2eHM6LopC9p1s4zt-158" style="edgeStyle=none;rounded=0;orthogonalLoop=1;jettySize=auto;html=1;exitX=0.5;exitY=0;exitDx=0;exitDy=0;entryX=0.5;entryY=1;entryDx=0;entryDy=0;" edge="1" parent="1" source="5lzL2eHM6LopC9p1s4zt-159" target="5lzL2eHM6LopC9p1s4zt-194">
          <mxGeometry relative="1" as="geometry" />
        </mxCell>
        <mxCell id="5lzL2eHM6LopC9p1s4zt-159" value="&lt;font face=&quot;Times New Roman&quot;&gt;Tok3&lt;/font&gt;" style="ellipse;whiteSpace=wrap;html=1;aspect=fixed;fillColor=#e1d5e7;strokeColor=#9673a6;" vertex="1" parent="1">
          <mxGeometry x="415" y="450" width="40" height="40" as="geometry" />
        </mxCell>
        <mxCell id="5lzL2eHM6LopC9p1s4zt-160" value="&lt;font face=&quot;Times New Roman&quot;&gt;EOP&lt;/font&gt;" style="ellipse;whiteSpace=wrap;html=1;aspect=fixed;fillColor=#f8cecc;strokeColor=#b85450;" vertex="1" parent="1">
          <mxGeometry x="415" y="290" width="40" height="40" as="geometry" />
        </mxCell>
        <mxCell id="5lzL2eHM6LopC9p1s4zt-161" style="edgeStyle=none;rounded=0;orthogonalLoop=1;jettySize=auto;html=1;exitX=0.5;exitY=0;exitDx=0;exitDy=0;entryX=0.5;entryY=1;entryDx=0;entryDy=0;" edge="1" parent="1" source="5lzL2eHM6LopC9p1s4zt-162" target="5lzL2eHM6LopC9p1s4zt-148">
          <mxGeometry relative="1" as="geometry" />
        </mxCell>
        <mxCell id="5lzL2eHM6LopC9p1s4zt-162" value="" style="rounded=1;whiteSpace=wrap;html=1;" vertex="1" parent="1">
          <mxGeometry x="95" y="353" width="40" height="20" as="geometry" />
        </mxCell>
        <mxCell id="5lzL2eHM6LopC9p1s4zt-163" style="edgeStyle=none;rounded=0;orthogonalLoop=1;jettySize=auto;html=1;exitX=0.5;exitY=0;exitDx=0;exitDy=0;entryX=0.5;entryY=1;entryDx=0;entryDy=0;" edge="1" parent="1" source="5lzL2eHM6LopC9p1s4zt-164" target="5lzL2eHM6LopC9p1s4zt-149">
          <mxGeometry relative="1" as="geometry" />
        </mxCell>
        <mxCell id="5lzL2eHM6LopC9p1s4zt-164" value="" style="rounded=1;whiteSpace=wrap;html=1;" vertex="1" parent="1">
          <mxGeometry x="175" y="353" width="40" height="20" as="geometry" />
        </mxCell>
        <mxCell id="5lzL2eHM6LopC9p1s4zt-165" style="edgeStyle=none;rounded=0;orthogonalLoop=1;jettySize=auto;html=1;exitX=0.5;exitY=0;exitDx=0;exitDy=0;entryX=0.5;entryY=1;entryDx=0;entryDy=0;" edge="1" parent="1" source="5lzL2eHM6LopC9p1s4zt-166" target="5lzL2eHM6LopC9p1s4zt-156">
          <mxGeometry relative="1" as="geometry" />
        </mxCell>
        <mxCell id="5lzL2eHM6LopC9p1s4zt-166" value="" style="rounded=1;whiteSpace=wrap;html=1;fillColor=#d5e8d4;strokeColor=#82b366;" vertex="1" parent="1">
          <mxGeometry x="255" y="353" width="40" height="20" as="geometry" />
        </mxCell>
        <mxCell id="5lzL2eHM6LopC9p1s4zt-167" style="rounded=0;orthogonalLoop=1;jettySize=auto;html=1;exitX=0.5;exitY=0;exitDx=0;exitDy=0;entryX=0.5;entryY=1;entryDx=0;entryDy=0;endArrow=none;endFill=0;strokeWidth=1;strokeColor=#CCCCCC;" edge="1" parent="1" source="5lzL2eHM6LopC9p1s4zt-172" target="5lzL2eHM6LopC9p1s4zt-162">
          <mxGeometry relative="1" as="geometry" />
        </mxCell>
        <mxCell id="5lzL2eHM6LopC9p1s4zt-168" style="edgeStyle=none;rounded=0;orthogonalLoop=1;jettySize=auto;html=1;exitX=0.5;exitY=0;exitDx=0;exitDy=0;entryX=0.5;entryY=1;entryDx=0;entryDy=0;endArrow=none;endFill=0;strokeWidth=1;strokeColor=#CCCCCC;" edge="1" parent="1" source="5lzL2eHM6LopC9p1s4zt-172" target="5lzL2eHM6LopC9p1s4zt-164">
          <mxGeometry relative="1" as="geometry" />
        </mxCell>
        <mxCell id="5lzL2eHM6LopC9p1s4zt-169" style="edgeStyle=none;rounded=0;orthogonalLoop=1;jettySize=auto;html=1;exitX=0.5;exitY=0;exitDx=0;exitDy=0;entryX=0.5;entryY=1;entryDx=0;entryDy=0;endArrow=none;endFill=0;strokeWidth=1;strokeColor=#CCCCCC;" edge="1" parent="1" source="5lzL2eHM6LopC9p1s4zt-172" target="5lzL2eHM6LopC9p1s4zt-166">
          <mxGeometry relative="1" as="geometry" />
        </mxCell>
        <mxCell id="5lzL2eHM6LopC9p1s4zt-170" style="edgeStyle=none;rounded=0;orthogonalLoop=1;jettySize=auto;html=1;exitX=0.5;exitY=0;exitDx=0;exitDy=0;entryX=0.5;entryY=1;entryDx=0;entryDy=0;endArrow=none;endFill=0;strokeColor=#CCCCCC;" edge="1" parent="1" source="5lzL2eHM6LopC9p1s4zt-172" target="5lzL2eHM6LopC9p1s4zt-185">
          <mxGeometry relative="1" as="geometry" />
        </mxCell>
        <mxCell id="5lzL2eHM6LopC9p1s4zt-171" style="edgeStyle=none;rounded=0;orthogonalLoop=1;jettySize=auto;html=1;exitX=0.5;exitY=0;exitDx=0;exitDy=0;entryX=0.5;entryY=1;entryDx=0;entryDy=0;endArrow=none;endFill=0;" edge="1" parent="1" source="5lzL2eHM6LopC9p1s4zt-172" target="5lzL2eHM6LopC9p1s4zt-126">
          <mxGeometry relative="1" as="geometry">
            <mxPoint x="674.9999999999998" y="370" as="targetPoint" />
          </mxGeometry>
        </mxCell>
        <mxCell id="5lzL2eHM6LopC9p1s4zt-172" value="" style="rounded=1;whiteSpace=wrap;html=1;" vertex="1" parent="1">
          <mxGeometry x="95" y="393" width="40" height="20" as="geometry" />
        </mxCell>
        <mxCell id="5lzL2eHM6LopC9p1s4zt-173" style="rounded=0;orthogonalLoop=1;jettySize=auto;html=1;exitX=0.5;exitY=0;exitDx=0;exitDy=0;entryX=0.5;entryY=1;entryDx=0;entryDy=0;endArrow=none;endFill=0;strokeWidth=1;strokeColor=#CCCCCC;" edge="1" parent="1" source="5lzL2eHM6LopC9p1s4zt-179" target="5lzL2eHM6LopC9p1s4zt-164">
          <mxGeometry relative="1" as="geometry" />
        </mxCell>
        <mxCell id="5lzL2eHM6LopC9p1s4zt-174" style="rounded=0;orthogonalLoop=1;jettySize=auto;html=1;exitX=0.5;exitY=0;exitDx=0;exitDy=0;endArrow=none;endFill=0;strokeWidth=1;strokeColor=#CCCCCC;" edge="1" parent="1" source="5lzL2eHM6LopC9p1s4zt-179">
          <mxGeometry relative="1" as="geometry">
            <mxPoint x="275" y="373" as="targetPoint" />
          </mxGeometry>
        </mxCell>
        <mxCell id="5lzL2eHM6LopC9p1s4zt-175" style="edgeStyle=none;rounded=0;orthogonalLoop=1;jettySize=auto;html=1;exitX=0.5;exitY=0;exitDx=0;exitDy=0;entryX=0.5;entryY=1;entryDx=0;entryDy=0;endArrow=none;endFill=0;strokeColor=#CCCCCC;" edge="1" parent="1" source="5lzL2eHM6LopC9p1s4zt-179" target="5lzL2eHM6LopC9p1s4zt-185">
          <mxGeometry relative="1" as="geometry" />
        </mxCell>
        <mxCell id="5lzL2eHM6LopC9p1s4zt-176" style="edgeStyle=none;rounded=0;orthogonalLoop=1;jettySize=auto;html=1;exitX=0.5;exitY=0;exitDx=0;exitDy=0;entryX=0.5;entryY=1;entryDx=0;entryDy=0;strokeColor=#CCCCCC;endArrow=none;endFill=0;" edge="1" parent="1" source="5lzL2eHM6LopC9p1s4zt-179" target="5lzL2eHM6LopC9p1s4zt-187">
          <mxGeometry relative="1" as="geometry" />
        </mxCell>
        <mxCell id="5lzL2eHM6LopC9p1s4zt-177" style="edgeStyle=none;rounded=0;orthogonalLoop=1;jettySize=auto;html=1;exitX=0.5;exitY=0;exitDx=0;exitDy=0;entryX=0.5;entryY=1;entryDx=0;entryDy=0;endArrow=none;endFill=0;strokeColor=#CCCCCC;" edge="1" parent="1" source="5lzL2eHM6LopC9p1s4zt-179" target="5lzL2eHM6LopC9p1s4zt-162">
          <mxGeometry relative="1" as="geometry" />
        </mxCell>
        <mxCell id="5lzL2eHM6LopC9p1s4zt-178" style="edgeStyle=none;rounded=0;orthogonalLoop=1;jettySize=auto;html=1;exitX=0.5;exitY=0;exitDx=0;exitDy=0;entryX=0.5;entryY=1;entryDx=0;entryDy=0;endArrow=none;endFill=0;" edge="1" parent="1" source="5lzL2eHM6LopC9p1s4zt-179" target="5lzL2eHM6LopC9p1s4zt-132">
          <mxGeometry relative="1" as="geometry" />
        </mxCell>
        <mxCell id="5lzL2eHM6LopC9p1s4zt-179" value="" style="rounded=1;whiteSpace=wrap;html=1;" vertex="1" parent="1">
          <mxGeometry x="175" y="393" width="40" height="20" as="geometry" />
        </mxCell>
        <mxCell id="5lzL2eHM6LopC9p1s4zt-180" style="edgeStyle=none;rounded=0;orthogonalLoop=1;jettySize=auto;html=1;exitX=0.5;exitY=0;exitDx=0;exitDy=0;endArrow=none;endFill=0;strokeWidth=1;strokeColor=#000000;" edge="1" parent="1" source="5lzL2eHM6LopC9p1s4zt-183">
          <mxGeometry relative="1" as="geometry">
            <mxPoint x="275" y="373" as="targetPoint" />
          </mxGeometry>
        </mxCell>
        <mxCell id="5lzL2eHM6LopC9p1s4zt-181" style="edgeStyle=none;rounded=0;orthogonalLoop=1;jettySize=auto;html=1;exitX=0.5;exitY=0;exitDx=0;exitDy=0;entryX=0.5;entryY=1;entryDx=0;entryDy=0;endArrow=none;endFill=0;strokeWidth=1;strokeColor=#000000;" edge="1" parent="1" source="5lzL2eHM6LopC9p1s4zt-183" target="5lzL2eHM6LopC9p1s4zt-185">
          <mxGeometry relative="1" as="geometry" />
        </mxCell>
        <mxCell id="5lzL2eHM6LopC9p1s4zt-182" style="edgeStyle=none;rounded=0;orthogonalLoop=1;jettySize=auto;html=1;exitX=0.5;exitY=0;exitDx=0;exitDy=0;entryX=0.5;entryY=1;entryDx=0;entryDy=0;endArrow=none;endFill=0;strokeWidth=1;strokeColor=#000000;" edge="1" parent="1" source="5lzL2eHM6LopC9p1s4zt-183" target="5lzL2eHM6LopC9p1s4zt-187">
          <mxGeometry relative="1" as="geometry" />
        </mxCell>
        <mxCell id="5lzL2eHM6LopC9p1s4zt-183" value="" style="rounded=1;whiteSpace=wrap;html=1;fillColor=#d5e8d4;strokeColor=#82b366;" vertex="1" parent="1">
          <mxGeometry x="255" y="393" width="40" height="20" as="geometry" />
        </mxCell>
        <mxCell id="5lzL2eHM6LopC9p1s4zt-184" style="edgeStyle=none;rounded=0;orthogonalLoop=1;jettySize=auto;html=1;exitX=0.5;exitY=0;exitDx=0;exitDy=0;entryX=0.5;entryY=1;entryDx=0;entryDy=0;" edge="1" parent="1" source="5lzL2eHM6LopC9p1s4zt-185" target="5lzL2eHM6LopC9p1s4zt-157">
          <mxGeometry relative="1" as="geometry" />
        </mxCell>
        <mxCell id="5lzL2eHM6LopC9p1s4zt-185" value="" style="rounded=1;whiteSpace=wrap;html=1;fillColor=#d5e8d4;strokeColor=#82b366;" vertex="1" parent="1">
          <mxGeometry x="335" y="353" width="40" height="20" as="geometry" />
        </mxCell>
        <mxCell id="5lzL2eHM6LopC9p1s4zt-186" style="edgeStyle=none;rounded=0;orthogonalLoop=1;jettySize=auto;html=1;exitX=0.5;exitY=0;exitDx=0;exitDy=0;entryX=0.5;entryY=1;entryDx=0;entryDy=0;" edge="1" parent="1" source="5lzL2eHM6LopC9p1s4zt-187" target="5lzL2eHM6LopC9p1s4zt-160">
          <mxGeometry relative="1" as="geometry" />
        </mxCell>
        <mxCell id="5lzL2eHM6LopC9p1s4zt-187" value="" style="rounded=1;whiteSpace=wrap;html=1;fillColor=#d5e8d4;strokeColor=#82b366;" vertex="1" parent="1">
          <mxGeometry x="415" y="353" width="40" height="20" as="geometry" />
        </mxCell>
        <mxCell id="5lzL2eHM6LopC9p1s4zt-188" style="rounded=0;orthogonalLoop=1;jettySize=auto;html=1;exitX=0.5;exitY=0;exitDx=0;exitDy=0;entryX=0.5;entryY=1;entryDx=0;entryDy=0;endArrow=none;endFill=0;strokeWidth=1;strokeColor=#000000;" edge="1" parent="1" source="5lzL2eHM6LopC9p1s4zt-191" target="5lzL2eHM6LopC9p1s4zt-185">
          <mxGeometry relative="1" as="geometry" />
        </mxCell>
        <mxCell id="5lzL2eHM6LopC9p1s4zt-189" style="rounded=0;orthogonalLoop=1;jettySize=auto;html=1;exitX=0.5;exitY=0;exitDx=0;exitDy=0;endArrow=none;endFill=0;strokeWidth=1;strokeColor=#000000;" edge="1" parent="1" source="5lzL2eHM6LopC9p1s4zt-191">
          <mxGeometry relative="1" as="geometry">
            <mxPoint x="435" y="373" as="targetPoint" />
          </mxGeometry>
        </mxCell>
        <mxCell id="5lzL2eHM6LopC9p1s4zt-190" style="edgeStyle=none;rounded=0;orthogonalLoop=1;jettySize=auto;html=1;exitX=0.5;exitY=0;exitDx=0;exitDy=0;entryX=0.5;entryY=1;entryDx=0;entryDy=0;endArrow=none;endFill=0;" edge="1" parent="1" source="5lzL2eHM6LopC9p1s4zt-191" target="5lzL2eHM6LopC9p1s4zt-126">
          <mxGeometry relative="1" as="geometry" />
        </mxCell>
        <mxCell id="5lzL2eHM6LopC9p1s4zt-191" value="" style="rounded=1;whiteSpace=wrap;html=1;fillColor=#d5e8d4;strokeColor=#82b366;" vertex="1" parent="1">
          <mxGeometry x="335" y="393" width="40" height="20" as="geometry" />
        </mxCell>
        <mxCell id="5lzL2eHM6LopC9p1s4zt-192" style="edgeStyle=none;rounded=0;orthogonalLoop=1;jettySize=auto;html=1;exitX=0.5;exitY=0;exitDx=0;exitDy=0;endArrow=none;endFill=0;strokeWidth=1;strokeColor=#000000;" edge="1" parent="1" source="5lzL2eHM6LopC9p1s4zt-194">
          <mxGeometry relative="1" as="geometry">
            <mxPoint x="435" y="373" as="targetPoint" />
          </mxGeometry>
        </mxCell>
        <mxCell id="5lzL2eHM6LopC9p1s4zt-193" style="edgeStyle=none;rounded=0;orthogonalLoop=1;jettySize=auto;html=1;exitX=0.5;exitY=0;exitDx=0;exitDy=0;entryX=0.5;entryY=1;entryDx=0;entryDy=0;endArrow=none;endFill=0;" edge="1" parent="1" source="5lzL2eHM6LopC9p1s4zt-194" target="5lzL2eHM6LopC9p1s4zt-132">
          <mxGeometry relative="1" as="geometry" />
        </mxCell>
        <mxCell id="5lzL2eHM6LopC9p1s4zt-194" value="" style="rounded=1;whiteSpace=wrap;html=1;fillColor=#d5e8d4;strokeColor=#82b366;" vertex="1" parent="1">
          <mxGeometry x="415" y="393" width="40" height="20" as="geometry" />
        </mxCell>
        <mxCell id="5lzL2eHM6LopC9p1s4zt-195" style="edgeStyle=none;rounded=0;orthogonalLoop=1;jettySize=auto;html=1;exitX=0.5;exitY=0;exitDx=0;exitDy=0;entryX=0.5;entryY=1;entryDx=0;entryDy=0;" edge="1" parent="1" source="5lzL2eHM6LopC9p1s4zt-196" target="5lzL2eHM6LopC9p1s4zt-150">
          <mxGeometry relative="1" as="geometry" />
        </mxCell>
        <mxCell id="5lzL2eHM6LopC9p1s4zt-196" value="" style="rounded=1;whiteSpace=wrap;html=1;" vertex="1" parent="1">
          <mxGeometry x="495" y="353" width="40" height="20" as="geometry" />
        </mxCell>
        <mxCell id="5lzL2eHM6LopC9p1s4zt-197" style="edgeStyle=none;rounded=0;orthogonalLoop=1;jettySize=auto;html=1;exitX=0.5;exitY=0;exitDx=0;exitDy=0;entryX=0.5;entryY=1;entryDx=0;entryDy=0;" edge="1" parent="1" source="5lzL2eHM6LopC9p1s4zt-198" target="5lzL2eHM6LopC9p1s4zt-151">
          <mxGeometry relative="1" as="geometry" />
        </mxCell>
        <mxCell id="5lzL2eHM6LopC9p1s4zt-198" value="" style="rounded=1;whiteSpace=wrap;html=1;" vertex="1" parent="1">
          <mxGeometry x="575" y="353" width="40" height="20" as="geometry" />
        </mxCell>
        <mxCell id="5lzL2eHM6LopC9p1s4zt-199" style="rounded=0;orthogonalLoop=1;jettySize=auto;html=1;exitX=0.5;exitY=0;exitDx=0;exitDy=0;entryX=0.5;entryY=1;entryDx=0;entryDy=0;endArrow=none;endFill=0;strokeWidth=1;strokeColor=#CCCCCC;" edge="1" parent="1" source="5lzL2eHM6LopC9p1s4zt-205" target="5lzL2eHM6LopC9p1s4zt-196">
          <mxGeometry relative="1" as="geometry" />
        </mxCell>
        <mxCell id="5lzL2eHM6LopC9p1s4zt-200" style="rounded=0;orthogonalLoop=1;jettySize=auto;html=1;exitX=0.5;exitY=0;exitDx=0;exitDy=0;endArrow=none;endFill=0;strokeWidth=1;strokeColor=#CCCCCC;" edge="1" parent="1" source="5lzL2eHM6LopC9p1s4zt-205">
          <mxGeometry relative="1" as="geometry">
            <mxPoint x="595" y="373" as="targetPoint" />
          </mxGeometry>
        </mxCell>
        <mxCell id="5lzL2eHM6LopC9p1s4zt-201" style="edgeStyle=none;rounded=0;orthogonalLoop=1;jettySize=auto;html=1;exitX=0.5;exitY=0;exitDx=0;exitDy=0;entryX=0.5;entryY=1;entryDx=0;entryDy=0;endArrow=none;endFill=0;strokeWidth=1;strokeColor=#CCCCCC;" edge="1" parent="1" source="5lzL2eHM6LopC9p1s4zt-205" target="5lzL2eHM6LopC9p1s4zt-166">
          <mxGeometry relative="1" as="geometry" />
        </mxCell>
        <mxCell id="5lzL2eHM6LopC9p1s4zt-202" style="edgeStyle=none;rounded=0;orthogonalLoop=1;jettySize=auto;html=1;exitX=0.5;exitY=0;exitDx=0;exitDy=0;entryX=0.5;entryY=1;entryDx=0;entryDy=0;endArrow=none;endFill=0;strokeWidth=1;strokeColor=#CCCCCC;" edge="1" parent="1" source="5lzL2eHM6LopC9p1s4zt-205" target="5lzL2eHM6LopC9p1s4zt-185">
          <mxGeometry relative="1" as="geometry" />
        </mxCell>
        <mxCell id="5lzL2eHM6LopC9p1s4zt-203" style="edgeStyle=none;rounded=0;orthogonalLoop=1;jettySize=auto;html=1;exitX=0.5;exitY=0;exitDx=0;exitDy=0;entryX=0.5;entryY=1;entryDx=0;entryDy=0;endArrow=none;endFill=0;strokeWidth=1;strokeColor=#CCCCCC;" edge="1" parent="1" source="5lzL2eHM6LopC9p1s4zt-205" target="5lzL2eHM6LopC9p1s4zt-187">
          <mxGeometry relative="1" as="geometry" />
        </mxCell>
        <mxCell id="5lzL2eHM6LopC9p1s4zt-204" style="edgeStyle=none;rounded=0;orthogonalLoop=1;jettySize=auto;html=1;exitX=0.5;exitY=0;exitDx=0;exitDy=0;entryX=0.5;entryY=1;entryDx=0;entryDy=0;endArrow=none;endFill=0;" edge="1" parent="1" source="5lzL2eHM6LopC9p1s4zt-205" target="5lzL2eHM6LopC9p1s4zt-132">
          <mxGeometry relative="1" as="geometry" />
        </mxCell>
        <mxCell id="5lzL2eHM6LopC9p1s4zt-205" value="" style="rounded=1;whiteSpace=wrap;html=1;" vertex="1" parent="1">
          <mxGeometry x="495" y="393" width="40" height="20" as="geometry" />
        </mxCell>
        <mxCell id="5lzL2eHM6LopC9p1s4zt-206" style="edgeStyle=none;rounded=0;orthogonalLoop=1;jettySize=auto;html=1;exitX=0.5;exitY=0;exitDx=0;exitDy=0;endArrow=none;endFill=0;strokeWidth=1;strokeColor=#CCCCCC;" edge="1" parent="1" source="5lzL2eHM6LopC9p1s4zt-211">
          <mxGeometry relative="1" as="geometry">
            <mxPoint x="595" y="373" as="targetPoint" />
          </mxGeometry>
        </mxCell>
        <mxCell id="5lzL2eHM6LopC9p1s4zt-207" style="edgeStyle=none;rounded=0;orthogonalLoop=1;jettySize=auto;html=1;exitX=0.5;exitY=0;exitDx=0;exitDy=0;entryX=0.5;entryY=1;entryDx=0;entryDy=0;endArrow=none;endFill=0;strokeWidth=1;strokeColor=#CCCCCC;" edge="1" parent="1" source="5lzL2eHM6LopC9p1s4zt-211" target="5lzL2eHM6LopC9p1s4zt-196">
          <mxGeometry relative="1" as="geometry" />
        </mxCell>
        <mxCell id="5lzL2eHM6LopC9p1s4zt-208" style="edgeStyle=none;rounded=0;orthogonalLoop=1;jettySize=auto;html=1;exitX=0.5;exitY=0;exitDx=0;exitDy=0;entryX=0.5;entryY=1;entryDx=0;entryDy=0;endArrow=none;endFill=0;strokeWidth=1;strokeColor=#CCCCCC;" edge="1" parent="1" source="5lzL2eHM6LopC9p1s4zt-211" target="5lzL2eHM6LopC9p1s4zt-187">
          <mxGeometry relative="1" as="geometry" />
        </mxCell>
        <mxCell id="5lzL2eHM6LopC9p1s4zt-209" style="edgeStyle=none;rounded=0;orthogonalLoop=1;jettySize=auto;html=1;exitX=0.5;exitY=0;exitDx=0;exitDy=0;entryX=0.5;entryY=1;entryDx=0;entryDy=0;endArrow=none;endFill=0;" edge="1" parent="1" source="5lzL2eHM6LopC9p1s4zt-211" target="5lzL2eHM6LopC9p1s4zt-126">
          <mxGeometry relative="1" as="geometry" />
        </mxCell>
        <mxCell id="5lzL2eHM6LopC9p1s4zt-210" style="edgeStyle=none;rounded=0;orthogonalLoop=1;jettySize=auto;html=1;exitX=0.5;exitY=0;exitDx=0;exitDy=0;entryX=0.5;entryY=1;entryDx=0;entryDy=0;endArrow=none;endFill=0;" edge="1" parent="1" source="5lzL2eHM6LopC9p1s4zt-211" target="5lzL2eHM6LopC9p1s4zt-132">
          <mxGeometry relative="1" as="geometry" />
        </mxCell>
        <mxCell id="5lzL2eHM6LopC9p1s4zt-211" value="" style="rounded=1;whiteSpace=wrap;html=1;" vertex="1" parent="1">
          <mxGeometry x="575" y="393" width="40" height="20" as="geometry" />
        </mxCell>
        <mxCell id="5lzL2eHM6LopC9p1s4zt-212" value="" style="endArrow=none;dashed=1;html=1;dashPattern=1 3;strokeWidth=3;rounded=0;endFill=0;" edge="1" parent="1">
          <mxGeometry width="50" height="50" relative="1" as="geometry">
            <mxPoint x="785" y="362.52" as="sourcePoint" />
            <mxPoint x="825" y="362.52" as="targetPoint" />
          </mxGeometry>
        </mxCell>
        <mxCell id="5lzL2eHM6LopC9p1s4zt-213" value="" style="endArrow=none;dashed=1;html=1;dashPattern=1 3;strokeWidth=3;rounded=0;endFill=0;" edge="1" parent="1">
          <mxGeometry width="50" height="50" relative="1" as="geometry">
            <mxPoint x="785" y="402.52" as="sourcePoint" />
            <mxPoint x="825" y="402.52" as="targetPoint" />
          </mxGeometry>
        </mxCell>
        <mxCell id="5lzL2eHM6LopC9p1s4zt-214" value="" style="shape=singleArrow;direction=south;whiteSpace=wrap;html=1;fillColor=#f5f5f5;fontColor=#333333;strokeColor=#666666;" vertex="1" parent="1">
          <mxGeometry x="427.5" y="220" width="55" height="40" as="geometry" />
        </mxCell>
        <mxCell id="5lzL2eHM6LopC9p1s4zt-215" value="&lt;font style=&quot;font-size: 18px;&quot; face=&quot;Times New Roman&quot;&gt;Prefix-LM&lt;/font&gt;" style="text;html=1;strokeColor=none;fillColor=none;align=center;verticalAlign=middle;whiteSpace=wrap;rounded=0;" vertex="1" parent="1">
          <mxGeometry x="165" y="220" width="120" height="30" as="geometry" />
        </mxCell>
        <mxCell id="5lzL2eHM6LopC9p1s4zt-216" value="&lt;font style=&quot;font-size: 18px;&quot; face=&quot;Times New Roman&quot;&gt;Auto-regressive blank filing&lt;/font&gt;" style="text;html=1;strokeColor=none;fillColor=none;align=center;verticalAlign=middle;whiteSpace=wrap;rounded=0;" vertex="1" parent="1">
          <mxGeometry x="685" y="220" width="220" height="30" as="geometry" />
        </mxCell>
        <mxCell id="5lzL2eHM6LopC9p1s4zt-217" value="&lt;font style=&quot;font-size: 18px;&quot; face=&quot;Times New Roman&quot;&gt;Multitask&lt;/font&gt;" style="text;html=1;strokeColor=none;fillColor=none;align=center;verticalAlign=middle;whiteSpace=wrap;rounded=0;" vertex="1" parent="1">
          <mxGeometry x="370" y="510" width="170" height="30" as="geometry" />
        </mxCell>
      </root>
    </mxGraphModel>
  </diagram>
</mxfile>
